<?xml version="1.0" encoding="utf-8"?>
<!-- Generator: Adobe Illustrator 18.0.0, SVG Export Plug-In . SVG Version: 6.00 Build 0)  -->
<!DOCTYPE svg PUBLIC "-//W3C//DTD SVG 1.1//EN" "http://www.w3.org/Graphics/SVG/1.1/DTD/svg11.dtd">
<svg version="1.1" id="Layer_1" xmlns="http://www.w3.org/2000/svg" xmlns:xlink="http://www.w3.org/1999/xlink" x="0px" y="0px"
	 viewBox="0 0 612 792" enable-background="new 0 0 612 792" xml:space="preserve">
<g>
	<path display="none" fill="#FFFFFF" d="M0,720.3C0,504,0,287.8,0,71.5c204,0,408,0,612,0c0,216.3,0,432.5,0,648.8
		C408,720.3,204,720.3,0,720.3z M140.8,491.4c-6.2,6.8-11.5,12.2-16.4,18.1c-1.4,1.7-1.6,4.5-1.8,6.9c-0.6,6.8,0.7,14.3-1.8,20.2
		c-5.3,12.7-4.2,24.2,2,35.8c1.9,3.5,3.4,7.3,4.8,11c3.1,8.3,5.4,16.1,5,25.9c-0.7,16.6-7.2,35.5,9.6,49c0.3,0.3,0.3,1,0.5,1.4
		c7,13.3,14.2,26.4,20.8,39.9c2.1,4.3,4.4,6,9.1,5.6c20.6-1.7,41.3-3.2,62-4.6c14.9-1.1,29.8-2.1,44.6-3.1
		c23.7-1.6,47.4-3.2,71.2-4.6c20-1.2,40-1.9,60-3.2c8.8-0.5,17.5-2.1,26.3-2.7c15.8-1.1,31.6-1.9,47.7-2.8c0.6,3.1,1.3,6,1.9,8.9
		c0.6,3.5,0.7,7,1.7,10.4c1.5,4.9,4.2,9.2,10.2,7.7c2.9-0.7,7.7-3.1,7.6-4.6c-0.3-11.4,4.9-23.3-4.1-34.1c-4.1-4.8-2.2-17,1.1-19.9
		c3.1-2.6,6-5.4,9.3-7.7c1.5-1,3.9-1.7,5.6-1.3c10.9,2.6,21.7,6.1,32.7,8.2c4.4,0.8,11.8,0.5,13.4-2.1c3.5-5.6,4.7-13,5.9-19.8
		c1.4-7.8-5-12.1-9.5-17c-2.5-2.7-6.1-4.4-9.3-6.6c0.7-0.8,1.4-1.6,2.1-2.4c3.7,0.4,7.4,0.8,11.5,1.3c-1.4-9.4-8.9-17.7-1.7-25.1
		c1.7,3.8,3.5,7.8,5.9,13c3.4-4.8,7.1-7.9,7.6-11.4c0.6-4.1-1.3-8.7-3-12.8c-0.5-1.2-4.9-2.3-5.5-1.7c-4.7,5.2-7.5-0.3-13.1-1
		c8-1.1,13.7-1.9,18.4-2.6c-1.5-4.4-3.4-8.3-4.1-12.3c-1.8-10.7-4.7-22.3,11.8-22.9c-0.8-12.1-11.6-4.7-16.5-9.7
		c4.8-1.7,9.2-3.3,15.4-5.5c-4.5-5-8.4-9.4-12.2-13.7c5.7-0.4,10.2,7.9,16.9,2.4c0.7,0.9,1.6,2,2.7,3.4c2.7-4.6,5.2-8.9,7.9-13.8
		c-8.5-2.4-15.9-4.5-23-6.5c5.5-9.4,12.2-8.2,19.4-4c0.2,0.1,0.5,0,0.8,0.1c8.6,3.2,8.6,3.2,12.7-4.7c-9.6-5.9-9.4-6-13.8-15.3
		c-1.8-3.7-4.6-7.1-7.5-10.1c-1.2-1.2-4.7-0.4-5.5-1.7c-2-3.1-4.3-6.7-4.3-10.2c-0.2-13.2-4-24.5-14-33.4c-1.7-1.5-3.5-3.2-4.3-5.2
		c-2.6-5.9-7.9-6.9-13.1-8.7c-2.6-0.9-6.4-3.4-6.7-5.6c-1.8-16.4-12.2-28.8-18.7-43c-5.5-11.9-13.8-19-27.1-20.5
		c-2.2-0.2-4.5-2-6.4-3.6c-3.4-2.9-6.3-6.5-9.8-9.3c-8.4-6.8-17.4-12.8-17.1-25.7c0.1-2.9-3.2-6.7-5.9-8.6
		c-11.1-8.1-23.5-14.6-33.8-23.6c-8.7-7.7-15.4-17.6-26.7-22.4c-9-3.8-16.1-9.2-22.7-17.3c-12.5-15.3-23.4-31.4-32.9-48.5
		c-3.7-6.6-8.2-7.7-14.5-8.1c-4.5-0.3-9.5-0.2-13.2-2.2c-10.9-6-21.5-12.7-31.9-19.7c-2.4-1.6-5.5-6.1-4.7-7.8
		c4.6-10.9,6.1-23.5,16.8-31.3c2.4-1.7,3.4-5.2,6.1-9.6c-35.1,5.4-67.1,10.8-99.3,15.3c-29.9,4.1-59.9,7.4-89.8,10.9
		c-27.5,3.2-55,6.2-82.5,9.3c-4.6,0.5-7.5,1.7-5.8,7.6c13.3,46.6,26.3,93.2,39.3,139.8c8.2,29.3,16.2,58.7,24.5,87.9
		c8.3,29.3,14.9,59.2,30.4,85.9c2,3.4,4.4,6.7,6.9,9.8c7.6,9.1,10.9,19.3,9,31.6C130.4,485.6,135.1,488.2,140.8,491.4z"/>
	<path d="M140.8,491.4c-5.7-3.2-10.4-5.8-14.7-8.1c1.9-12.3-1.4-22.5-9-31.6c-2.6-3-4.9-6.3-6.9-9.8c-15.5-26.7-22.1-56.6-30.4-85.9
		c-8.3-29.3-16.3-58.6-24.5-87.9c-13-46.6-26.1-93.2-39.3-139.8c-1.7-6,1.2-7.1,5.8-7.6c27.5-3.1,55-6.1,82.5-9.3
		c30-3.5,60-6.7,89.8-10.9c32.2-4.5,64.3-9.9,99.3-15.3c-2.7,4.4-3.8,7.9-6.1,9.6c-10.7,7.8-12.3,20.4-16.8,31.3
		c-0.7,1.7,2.3,6.2,4.7,7.8c10.4,7,20.9,13.7,31.9,19.7c3.7,2,8.7,2,13.2,2.2c6.3,0.4,10.8,1.5,14.5,8.1
		c9.5,17.1,20.4,33.2,32.9,48.5c6.6,8.1,13.7,13.5,22.7,17.3c11.2,4.8,17.9,14.7,26.7,22.4c10.2,9,22.6,15.5,33.8,23.6
		c2.7,2,6,5.8,5.9,8.6c-0.3,12.9,8.7,18.9,17.1,25.7c3.5,2.8,6.4,6.4,9.8,9.3c1.8,1.6,4.1,3.3,6.4,3.6c13.2,1.5,21.6,8.6,27.1,20.5
		c6.6,14.2,16.9,26.6,18.7,43c0.2,2.1,4,4.7,6.7,5.6c5.2,1.8,10.5,2.8,13.1,8.7c0.9,2,2.7,3.7,4.3,5.2c10,8.9,13.8,20.3,14,33.4
		c0.1,3.5,2.3,7.1,4.3,10.2c0.8,1.2,4.3,0.4,5.5,1.7c2.9,3,5.7,6.4,7.5,10.1c4.4,9.3,4.1,9.4,13.8,15.3c-4.1,7.9-4.1,7.9-12.7,4.7
		c-0.2-0.1-0.6,0-0.8-0.1c-7.1-4.1-13.8-5.4-19.4,4c7.2,2,14.6,4.1,23,6.5c-2.8,4.8-5.3,9.2-7.9,13.8c-1.1-1.4-2-2.5-2.7-3.4
		c-6.7,5.5-11.2-2.8-16.9-2.4c3.9,4.3,7.8,8.7,12.2,13.7c-6.2,2.2-10.6,3.8-15.4,5.5c4.9,5,15.7-2.4,16.5,9.7
		c-16.6,0.6-13.6,12.2-11.8,22.9c0.7,4.1,2.6,8,4.1,12.3c-4.6,0.6-10.4,1.5-18.4,2.6c5.6,0.7,8.4,6.2,13.1,1c0.6-0.7,5,0.5,5.5,1.7
		c1.6,4.1,3.5,8.7,3,12.8c-0.5,3.5-4.2,6.6-7.6,11.4c-2.4-5.2-4.2-9.2-5.9-13c-7.2,7.4,0.4,15.6,1.7,25.1c-4.2-0.5-7.9-0.9-11.5-1.3
		c-0.7,0.8-1.4,1.6-2.1,2.4c3.1,2.2,6.7,3.9,9.3,6.6c4.5,4.8,10.9,9.2,9.5,17c-1.2,6.8-2.4,14.1-5.9,19.8c-1.6,2.6-9.1,3-13.4,2.1
		c-11-2.1-21.7-5.6-32.7-8.2c-1.7-0.4-4.1,0.3-5.6,1.3c-3.3,2.3-6.2,5.1-9.3,7.7c-3.3,2.8-5.2,15-1.1,19.9c9,10.8,3.8,22.7,4.1,34.1
		c0,1.5-4.7,3.9-7.6,4.6c-6,1.5-8.8-2.8-10.2-7.7c-1-3.3-1.1-6.9-1.7-10.4c-0.5-2.9-1.2-5.8-1.9-8.9c-16.1,0.9-31.9,1.7-47.7,2.8
		c-8.8,0.6-17.5,2.2-26.3,2.7c-20,1.2-40,2-60,3.2c-23.7,1.4-47.5,3-71.2,4.6c-14.9,1-29.8,2-44.6,3.1c-20.7,1.5-41.3,3-62,4.6
		c-4.7,0.4-7-1.2-9.1-5.6c-6.6-13.5-13.8-26.6-20.8-39.9c-0.2-0.4-0.2-1.1-0.5-1.4c-16.8-13.5-10.3-32.4-9.6-49
		c0.4-9.7-1.9-17.5-5-25.9c-1.4-3.7-2.9-7.5-4.8-11c-6.2-11.7-7.4-23.1-2-35.8c2.5-5.9,1.2-13.4,1.8-20.2c0.2-2.4,0.4-5.2,1.8-6.9
		C129.3,503.6,134.6,498.1,140.8,491.4z"/>
</g>
</svg>
