<?xml version="1.0" encoding="utf-8"?>
<!-- Generator: Adobe Illustrator 18.0.0, SVG Export Plug-In . SVG Version: 6.00 Build 0)  -->
<!DOCTYPE svg PUBLIC "-//W3C//DTD SVG 1.1//EN" "http://www.w3.org/Graphics/SVG/1.1/DTD/svg11.dtd">
<svg version="1.1" xmlns="http://www.w3.org/2000/svg" xmlns:xlink="http://www.w3.org/1999/xlink" x="0px" y="0px"
	 viewBox="0 0 612 792" enable-background="new 0 0 612 792" xml:space="preserve">
<g id="Grey">
	<g>
		<path display="none" fill="#FFFFFF" d="M0.6,91c203.8,0,407.6,0,611.4,0c0,203.2,0,406.4,0,609.6c-203.8,0-407.6,0-611.4,0
			C0.6,497.4,0.6,294.2,0.6,91z M503.8,679.3c-0.5,0-1-0.1-1.5-0.1c-2.2-0.1-4.6,0-3.4-3.5c0.1-0.4-0.7-1.6-1.2-1.7
			c-2.1-0.2-4.2-0.1-6.5-0.1c0.1,1.2,0.3,2.9,0.4,4.6c-1.9,0.4-3.6,0.7-5.6,1c-0.1,0.5-0.2,1.4-0.3,2.3c-3.3-2-3.7-1.7-3.8,1.5
			c-1.3,0.3-2.9,0.3-3.5,1c-0.9,1.3-1.1,3-1.6,4.6c-3.4-1.1-6.2-0.2-7,1.7c-2,0.4-3.6,0.7-5.1,1c-0.4-0.7-0.9-1.5-1.6-2.7
			c-0.6,2.3-1.1,3.9-1.5,5.6c0.5,0.1,1.1,0.4,1.5,0.3c4.3-1.4,9.4,0.5,13.2-3.3c0.4-0.4,1.3-0.1,1.9-0.3c2.1-0.8,4.1-1.8,6.2-2.4
			c2.6-0.6,4.1-1.8,3.9-3.8c3.8,0,7.3,0,10.9,0c0.1,0.4,0.4,1.1,0.6,1.8c9.3-2.9,9.3-2.9,10.3-4.9c-0.6,0-1.2-0.2-1.7,0
			c-3.6,1.4-3.6,1.4-4.7-2.1c-0.1-0.2,0-0.4,0-0.6c0.6-0.5,1.1-1,1.7-1.5c-1-1-1.9-2-2.9-3c-0.3,0.3-0.6,0.5-1,0.8
			C502.3,676.8,503,678.1,503.8,679.3z M581.7,624.6c0.6-0.7,1.2-1.4,1.7-2c1-1.2,2.1-2.4,3.2-3.5c1.8-1.8,1.1-3-0.7-4.2
			c-0.2-0.1-0.1-0.6-0.1-0.9c-0.2-1.5-0.1-3.2-0.7-4.5c-0.9-2.1,0.1-3.6,0.9-5.4c0.8-1.8,1-3.8,1.5-5.7c0.2-0.9,0.1-2.3,0.7-2.8
			c2.8-2,2.9-5.3,4.3-8c0.6-1.3,2.1-2.1,3.2-3.1c0,0,1.3,1.2,1.3,1.3c-2.4,3.2,0.3,4.2,2.2,5.9c0.4-0.5,0.8-0.8,0.9-1.1
			c0.7-3.4,1.3-6.9,1.9-10.3c0.3-1.7,1-3.4,1.1-5.1c0.2-7.7,0.1-15.5,0.3-23.2c0.1-3.4,0.7-6.8,1.2-10.2c0.7-6,1.5-12,2.2-18
			c0.3-2.7,0.8-5.4,1-8.1c0.4-4.5,0.8-9.1,0.9-13.6c0.1-3.7-0.1-7.4-0.1-11.1c0-1.5,0.7-3.2,0.3-4.6c-3.6-11.9-7.2-23.8-11.3-35.6
			c-1.9-5.6-5-10.9-7.2-16.4c-3.1-7.9-6.3-15.8-8.6-23.9c-2.1-7.5-5.3-14.3-8.4-21.3c-3.4-7.5-7.3-14.8-9.9-22.6
			c-2-6-2.6-12.6-3.1-18.9c-0.3-3.8,0.4-7.8,5.1-9.5c0.5-0.2,0.9-2.2,0.6-3.1c-0.8-2.7-1.9-5.3-2.9-7.9c-0.6-1.5-1.1-3.1-1.9-4.5
			c-1-1.7-2.5-3.1-3.5-4.8c-7.1-11.6-14.2-23.1-21.1-34.9c-3.8-6.4-7.2-13.1-10.3-19.9c-4.1-9.1-8-18.3-11.6-27.6
			c-2.8-7.2-5.1-14.6-7.5-22c-1.1-3.4-1.5-7-2.4-10.4c-0.4-1.6-1.3-3-1.7-4.6c-1.4-6.3-2.5-12.6-3.9-18.8
			c-1.4-6.5-3.6-12.7-3.4-19.5c0.1-3,0.1-6.6-1.5-8.8c-1.8-2.5-1.9-4.9-1.9-7.3c0-4.2,0.6-8.3,1.1-13.1c-3.9,1.6-6.7-2.7-10.7-0.9
			c-1.2,0.5-3.3,0.1-4.5-0.7c-2.4-1.7-4.5-3.3-7.7-2.1c-0.4,0.2-1.3-0.1-1.6-0.4c-2.4-2.6-5.5-3.3-8.8-3.8c-1.2-0.2-2.4-1.3-3.5-2
			c-0.7-0.4-1.4-1-2.2-1.3c-0.7-0.2-1.6-0.3-2.3,0c-1,0.4-2,1-2.6,1.8c-0.5,0.7-0.6,1.7-0.7,2.1c-1.4-0.1-2.7-0.5-3.5-0.1
			c-0.6,0.3-0.5,1.8-0.7,2.7c-0.8,0.9-1.4,2.1-1.7,3.2c-0.2,0.8,0.2,1.8-0.1,2.5c-1.4,3.4,0.1,6.2,1.6,9.1c0.6,1,1.1,2.4,1,3.4
			c-0.6,4.3-1.4,8.6-2.2,12.9c-0.1,0.9-0.6,1.9-0.3,2.6c1,2.4-0.5,2.5-2.1,2.4c-1.6-0.1-3.2-0.9-4.6-0.5c-2.3,0.7-3.5-0.3-3.9-2.1
			c-0.5-2-0.4-4.2-0.5-6.3c-0.1-0.8,0.3-2-0.1-2.4c-2.4-2.2-3.2-4.5-0.9-7.6c-10.4-0.9-20.2-1.7-30.1-2.5
			c-7.6-0.6-15.2-1.2-22.9-1.8c-9.4-0.7-18.8-1.2-28.2-1.8c-2.8-0.2-5.7-0.4-8.5-0.6c-8.8-0.8-17.5-1.6-26.3-2.3
			c-5.3-0.5-10.6-0.8-15.8-1.2c-8.7-0.8-17.3-1.6-26-2.3c-6.9-0.5-13.7-0.7-20.6-1.2c-9.1-0.7-18.1-1.6-27.2-2.3
			c-2.4-0.2-4.7,0.1-5.6-3c-0.7-2.2-2.8-4.2-2.7-6.3c0.1-3.4-0.1-6.4-2.2-9.2c-0.8-1.1-0.6-2.8-1.1-4.1c-0.6-1.4-1.5-2.6-2.4-4.2
			c-4.4-0.2-9.2-0.6-14.1-0.7c-10.2-0.3-20.4-0.4-30.5-0.6c-7.6-0.2-15.2-0.4-22.8-0.6c-5.4-0.2-10.8-0.4-16.3-0.6
			c-10.3-0.4-20.7-0.7-31-1.2c-10-0.5-20-1.2-30-1.7c-9-0.5-18.1-0.9-27.2-1.2c-7.2-0.3-14.4-0.4-21.6-0.6c-0.4,0-0.8,0-1.2-0.1
			c-3.5-0.2-7-0.5-10.5-0.7c0,2,0.3,3.7-0.1,5c-0.6,2-1.6,4-2.8,5.7c-1.6,2.3-0.6,3.8,0.9,5.6c1.8,2,3.3,4.2,5,6.3
			c1.2,1.6,2.3,3.4,3.7,4.8c1.6,1.4,3.4,2.6,5.3,3.6c2.4,1.2,2.4,3.4,2,5.3c-0.5,1.8-1.6,3.6-2.7,5.2c-1.6,2.4-2.6,4.5-0.8,7.4
			c1.2,2.1,2.8,3,4.8,3.7c0.7,0.2,1.3,0.7,2.4,1.3c-2.7,0.8-4.8,1.4-6.9,2c-0.4,1.3-1.6,3.1-1.1,4.2c1.1,2.4-0.3,2.4-1.8,2.6
			c-1,0.1-2.1,0-4,0c1.1,1.4,1.7,2.2,2.2,2.7c-1.3,0.5-2.9,1-4.6,1.6c0.1,0.3,0.2,0.7,0.3,1c1,0,2,0.1,2.9,0
			c6.9-0.8,13.5-2.9,20.7-2.6c7.6,0.3,15.2-1.8,22.9-2.8c6.2-0.8,12.4-1.9,18.6-2.1c5.3-0.2,10.6,0.5,15.8,1.1
			c4.8,0.5,9.7,1.1,14.4,2.3c13.2,3.2,25.5,8.6,37.1,15.8c2.7,1.7,5.2,3.8,7.7,5.8c2.4,1.9,4.6,4.1,7.1,5.9c1.9,1.4,4.3,2,5.9,3.7
			c1.8,1.9,2.4,5,5.5,4.1c0.1,1-0.2,2.2,0.2,2.5c1.4,0.9,3.1,1.5,4.6,2.3c1.7,0.8,3.7,1.3,4.9,2.6c1.8,1.9,2.7,4.6,4.4,6.6
			c3.7,4.4,2.2,9.1,1.5,14.5c-1.2-0.6-2.7-0.8-2.8-1.4c-1.3-4.5-4-8.9-1.5-13.9c0.3-0.7,0.2-1.5,0.3-2.3c-0.3-0.2-0.7-0.3-1-0.5
			c-0.8,1-2.1,1.9-2.4,3c-1.5,6.2,0.7,11.8,3.5,17.2c0.3,0.5,1.9,0.7,2.7,0.5c5-1.2,9.6-0.9,13.6,2.8c1,0.9,2.4,1.3,3.6,1.9
			c1.1,0.5,2.8,0.8,3.2,1.7c1.9,3.6,4.4,2,6.9,1.2c1-0.3,2-0.7,3-1.2c3.1-1.5,6.1-3.8,9.4-4.5c5-1,8-4.7,11.6-7.6
			c0.6-0.5,0.6-1.6,0.8-2.5c-0.2-0.2-0.4-0.4-0.7-0.6c-4.9,2.4-8.2,7.8-13.6,8.4c-0.4-1.4-0.8-2.5-1.2-3.9c0.8-0.5,1.7-1.2,2.7-1.8
			c6.7-3.6,13.4-7.2,20.2-10.8c0.7-0.3,1.5-0.4,2.7-0.7c1.8-4.4,7-2,10-4.3c0.2,1.2,0.2,2.3,0.5,2.4c1.6,0.6,3.4,1.3,5,1.1
			c1.5-0.1,3.5-0.3,3.8-2.8c0.2-2.2-1.7-4.1-0.6-6.4c0-0.1-0.5-0.4-0.6-0.6c-0.1-0.8-0.4-1.8,0-2.4c1.7-2.5,4.8-2.8,7.1-4.4
			c1.6-1.1,2.9-0.5,4.4-0.3c1.4,0.2,2.9,0.5,4.3,0.3c3-0.4,6-1.2,9-1.6c0.7-0.1,1.6,0.5,2.3,0.9c1.5,1.1,2.8,2.5,4.3,3.6
			c3.5,2.4,6.8,5.3,10.6,6.8c3.8,1.4,6.9,3.7,10,6c1.4,1,2.7,2.3,3.4,3.8c1.4,3,4.1,5.4,3.7,9.1c0,0.3,0,0.7,0.2,0.8
			c3.1,2.5,6.2,5.1,9.3,7.5c1.2,0.9,2.6,1.6,4.2,2.5c0,4.2,0,8.8,0,13.5c1.2,0.6,2.3,1.6,3.4,1.7c2.1,0.1,3.3,1.1,4.6,2.8
			c1.1,1.4,1.5,4.6,4.8,2.8c0.4-0.2,2.2,0.9,2.6,1.8c1.6,3.6,2.9,7.3,4.3,10.7c2.2,0.7,4.4,1.5,6,2c-0.3,3-0.5,5.4-0.7,7.7
			c0.9,0.2,1.6,0.4,1.5,0.4c1.1,3.1,1.9,5.6,2.9,8c0.1,0.3,1.2,0.2,1.9,0.3c0.1-1.5-0.1-2.9,0.4-4.1c0.6-1.5,1-3.3,3.8-2.7
			c3.9,0.8,8,0.8,12.7,1.2c-0.5,1.4-0.8,2.7-1.4,3.8c-0.9,1.8,0.7,5.3,2.8,5.3c1.8,0.1,2.6,0.4,1.8,2.5c-1.1,2.7,0.4,4.7,2.3,6.5
			c0.9,0.8,1.8,1.8,2.3,2.9c0.9,1.7,1.5,3.2-1.2,4.4c-2.3,1-3.9,6.5-2.9,8.6c0.3,0.5,0.8,1,1.4,1.3c0.2,0.1,0.8-0.6,1.2-0.9
			c0.7-0.6,1.4-1.1,2.1-1.6c0.2,0.2,0.4,0.4,0.6,0.6c-1.6,1.5,0.6,4.4-2.2,5.6c0,0,0.1,0.9,0.4,1.2c0.9,0.9,2,1.6,3,2.4
			c-1.4,1.2-1.3,1.2-0.6,3.7c0.5,1.8,0.3,3.8,0.8,5.6c0.4,1.6,1.3,2.7,0.2,4.8c-1.2,2.4-1,5.5-1.4,8.1c-0.8,1.3-1.9,2.4-2.4,3.8
			c-1.3,4.1-2.1,8.4-3.4,12.5c-0.5,1.7-1.9,3.2-2.7,4.9c-0.6,1.4-1.8,3.3-1.3,4.4c1.5,3.7,0.8,7.3,0.5,10.9c-0.3,0-0.5,0.1-0.8,0.1
			c-0.2-1.4-0.4-2.8-0.6-4.3c-2.2-0.1-3,0.9-2.4,2.7c1.2,3.4,0.9,6.9-0.5,10c-2.3,5.1-1.2,10.6,2.8,14.5c2.2,2.1,3.5,5.1,5.1,7.9
			c0.6,1.1,0.7,2.6,1,4.2c-0.3,0.2-0.9,0.5-1.6,0.8c0,1.4,1.8,3.1-0.9,3.9c-0.3,0.1-0.3,1.7-0.1,2.5c0.1,0.6,1,1,1.2,1.6
			c1.5,4,2.5,8.3,4.6,11.9c3.6,6,8.2,11.4,11.8,17.4c2.5,4,3.9,8.6,6,12.9c3.2,6.5,6.4,13,9.7,19.5c1.4,2.8,2.6,6.1,4.8,8.1
			c2.8,2.6-1,6.5,2.5,8.6c0,0-0.2,0.9-0.5,1c-3.6,1.4-1,2.2,0.3,3.3c0.4,0.4,0.8,0.9,1,1.4c1.2,3.1,2.9,6.2,3.4,9.4
			c0.6,4.6,2.8,7.7,6.5,10.2c3.9,2.7,9.6,1.3,10.2-3c-2.2-0.5-4.4-0.9-6.5-1.4c0.2-0.1,0.6-0.4,1-0.5c3.5-0.8,11.4,3.2,13.5,6.6
			c0.8,1.3,2.3,2.1,2.9,3.5c3.1,7.1,3.8,14.7,5,22.3c1,5.9,3.2,11.6,5.3,17.3c1,2.7,2.6,5.1,4.1,7.5c0.4,0.7,1.3,1.1,1.9,1.7
			c0.5-0.7,1.5-1.3,1.6-2.1c0.2-1.9,1.3-2.5,2.9-2.4c1.4,0.1,2.7,0.4,3.6,0.6c0.8,4.3,5.2,4.1,7.5,6.3c2.6,2.6,5.7,3.4,10.1,3
			c-2.2,1.7-2.7,2.9-0.6,3.5c2.1,0.6,1.8,1.7,1.1,3.1c-0.3,0.5-0.4,1-0.9,2.4c1.9-0.3,3.1-0.5,4.4-0.7c1,0.2,1.7,1.4,2.5,2.6
			c0.5,0.8,1.2,1.5,1.7,2.2c0.7,1,2.1,2.1,2,2.9c-0.7,3.6,3.9,5.7,2.4,9.4c-0.1,0.1,0.3,0.4,0.5,0.7c2.4,2.8,4.1,5.7,4.9,9.5
			c0.4,1.8,1.7,2.5-0.1,4.6c-1.4,1.7-1.3,4.8-1.9,7.2c-0.4,1.6,1.9,9.6,3.1,10.3c2.8,1.5,4.8,4.7,9.1,2.7c2.9-1.4,6.7-0.9,10.1-1.4
			c0.7-0.1,1.3-0.8,2-1.3c1-0.7,2-1.5,3-2.2c0.5,1.9,4.1,0.4,3.7,3.3c0,0.4,0.7,1.3,1.2,1.3c0.5,0,1.2-0.5,1.6-1
			c0.4-0.4,0.6-0.9,1.3-1.9c3.5,2.5,6.9,4.8,10.2,7.1c0.4-1.6,0.8-2.9,0.9-4.2c0.1-0.6-0.1-1.6-0.5-1.9c-2.7-1.9-0.4-2.5,0.2-3
			c2.2,1.3,4,2.3,5.8,3.4c0.3-0.2,0.5-0.5,0.8-0.7c-0.5-0.7-1-1.5-1.6-2.1c-0.5-0.6-1.2-1-1.7-1.3c1.6-2,5.1,0.9,5.2-2.6
			c1.1,0.3,2.4,0.6,4.5,1c1.6,3.3-2,6-3.4,9.2c1.2,0.4,2.1,0.7,3.6,1.2c-2.6,2.3-4.8,4.2-7.4,6.5c0,1.1,0.4,3.2-2.7,3.6
			c-1.2,0.2-2.7,1.2-3.3,2.3c-0.9,1.7-3.5,2.6-2.7,5.7c1.3-0.8,2.3-1.2,3.1-1.8c0.9-0.8,1.5-2.3,2.5-2.7c5.1-2,7.1-6.9,10.2-9.7
			c1.5-0.7,2.5-1.2,3.4-1.6c-1.1-2,0.8-2.3,1.8-3.3c1.9-2,4-3.9,5.3-6.3c2.5-4.5,4.5-9.3,6.7-14c2.5-5.1,5.1-10.1,7.4-15.3
			c0.7-1.6,1.2-3.8-1-5.4c-0.5,1.3-1.1,2.3-1.5,3.5c-0.6,2-0.6,4.1-1.5,5.9c-1.5,3.1-3.3,6-5.4,8.7
			C587.1,623,585.8,626.2,581.7,624.6z M526.8,678.6c0.1,0.3,0.2,0.5,0.3,0.8c0.9-0.4,1.9-0.8,2.8-1.2c2.4-1,4-3.6,7-3.2
			c0.3,0,1-0.9,1.1-1.4c0.1-0.4-0.6-1.3-0.9-1.3c-1.2,0.1-2.5,0.2-3.7,0.7c-4.5,1.7-9,3.4-13.5,5.2c-0.7,0.3-1.4,0.8-2,1.2
			c0.6,0.8,1.1,2,1.9,2.2c1.7,0.3,3.8,1.5,4.7-1.4C524.7,679.3,526,679,526.8,678.6z M540.9,670.7c0.1,0.3,0.2,0.5,0.3,0.8
			c0.9-0.1,1.9,0.1,2.7-0.3c2.4-1.1,4.8-2.2,7.2-3.5c1.3-0.7,2.7-1.6,3.8-2.6c1.9-1.8,1.2-3.4-0.6-5.1c-0.4,0.5-0.8,0.7-0.9,1
			c-0.7,3.3-2.9,4.9-6.1,5.1C544.2,666.4,543,669.1,540.9,670.7z M434,694.6c3.3,0,4.9-1,4.5-2.8c-0.2-1.1-1.7-2.1-2.8-2.6
			c-0.9-0.4-3.8,2.8-3.4,4.1C432.6,694.1,433.8,694.5,434,694.6z M233.8,213.3c1.4,1.5,3.9,1.2,7.6-1.4c0.7-0.5,1-1.7,1.4-2.7
			c-0.2-0.1-0.5-0.2-0.7-0.3C239.4,210.4,236.7,211.8,233.8,213.3z M476.8,683.9c0.3-0.4,0.6-0.8,0.9-1.2c-1.3-1.1-2.6-2.2-3.9-3.2
			c-0.1-0.1-0.8,0.2-0.9,0.4c-0.1,0.3-0.1,0.9,0.1,1.1C474.2,682,475.5,682.9,476.8,683.9z"/>
		<path fill="#CCCCCC" d="M581.7,624.6c4.2,1.5,5.4-1.7,7-3.7c2.1-2.7,3.9-5.7,5.4-8.7c0.9-1.8,0.9-3.9,1.5-5.9
			c0.3-1.2,0.9-2.2,1.5-3.5c2.2,1.6,1.7,3.8,1,5.4c-2.2,5.2-4.9,10.2-7.4,15.3c-2.2,4.7-4.2,9.5-6.7,14c-1.3,2.4-3.4,4.3-5.3,6.3
			c-0.9,1-2.9,1.3-1.8,3.3c-1,0.5-2,0.9-3.4,1.6c-3.1,2.8-5.1,7.7-10.2,9.7c-1,0.4-1.6,1.9-2.5,2.7c-0.8,0.7-1.8,1.1-3.1,1.8
			c-0.8-3.1,1.8-4.1,2.7-5.7c0.6-1.1,2.1-2.1,3.3-2.3c3.1-0.4,2.8-2.6,2.7-3.6c2.7-2.3,4.8-4.2,7.4-6.5c-1.5-0.5-2.4-0.8-3.6-1.2
			c1.4-3.2,5-5.9,3.4-9.2c-2.1-0.5-3.4-0.8-4.5-1c-0.1,3.5-3.6,0.6-5.2,2.6c0.4,0.3,1.1,0.7,1.7,1.3c0.6,0.6,1,1.4,1.6,2.1
			c-0.3,0.2-0.5,0.5-0.8,0.7c-1.8-1.1-3.7-2.1-5.8-3.4c-0.6,0.6-2.9,1.1-0.2,3c0.4,0.3,0.6,1.3,0.5,1.9c-0.2,1.3-0.6,2.6-0.9,4.2
			c-3.3-2.3-6.6-4.6-10.2-7.1c-0.7,1-0.9,1.6-1.3,1.9c-0.5,0.4-1.1,1-1.6,1c-0.4,0-1.2-0.9-1.2-1.3c0.4-3-3.2-1.4-3.7-3.3
			c-1,0.7-2,1.5-3,2.2c-0.6,0.5-1.3,1.2-2,1.3c-3.4,0.5-7.1,0.1-10.1,1.4c-4.3,2-6.3-1.3-9.1-2.7c-1.2-0.6-3.4-8.6-3.1-10.3
			c0.6-2.5,0.4-5.5,1.9-7.2c1.8-2.1,0.5-2.7,0.1-4.6c-0.9-3.8-2.6-6.7-4.9-9.5c-0.2-0.2-0.6-0.5-0.5-0.7c1.5-3.7-3.1-5.8-2.4-9.4
			c0.2-0.8-1.3-1.9-2-2.9c-0.6-0.8-1.2-1.5-1.7-2.2c-0.8-1.2-1.6-2.4-2.5-2.6c-1.2,0.2-2.5,0.4-4.4,0.7c0.5-1.4,0.7-1.9,0.9-2.4
			c0.7-1.4,1-2.5-1.1-3.1c-2.1-0.6-1.5-1.8,0.6-3.5c-4.3,0.5-7.5-0.4-10.1-3c-2.2-2.2-6.6-2-7.5-6.3c-0.9-0.2-2.3-0.5-3.6-0.6
			c-1.6-0.1-2.7,0.5-2.9,2.4c-0.1,0.7-1,1.4-1.6,2.1c-0.6-0.6-1.5-1-1.9-1.7c-1.5-2.5-3.1-4.9-4.1-7.5c-2-5.7-4.3-11.4-5.3-17.3
			c-1.2-7.6-2-15.2-5-22.3c-0.6-1.3-2.1-2.2-2.9-3.5c-2.1-3.4-9.9-7.4-13.5-6.6c-0.4,0.1-0.8,0.4-1,0.5c2.1,0.4,4.3,0.9,6.5,1.4
			c-0.6,4.3-6.3,5.7-10.2,3c-3.7-2.6-5.9-5.6-6.5-10.2c-0.4-3.2-2.2-6.3-3.4-9.4c-0.2-0.5-0.6-1-1-1.4c-1.2-1-3.9-1.8-0.3-3.3
			c0.3-0.1,0.5-1,0.5-1c-3.4-2,0.4-6-2.5-8.6c-2.2-2-3.4-5.3-4.8-8.1c-3.3-6.5-6.6-12.9-9.7-19.5c-2.1-4.3-3.5-8.9-6-12.9
			c-3.7-6-8.3-11.4-11.8-17.4c-2.1-3.6-3.1-7.9-4.6-11.9c-0.2-0.6-1.1-1-1.2-1.6c-0.2-0.8-0.1-2.4,0.1-2.5c2.7-0.8,0.9-2.5,0.9-3.9
			c0.6-0.3,1.3-0.7,1.6-0.8c-0.4-1.6-0.4-3.1-1-4.2c-1.5-2.7-2.9-5.7-5.1-7.9c-4-3.9-5.1-9.4-2.8-14.5c1.4-3.1,1.6-6.6,0.5-10
			c-0.6-1.8,0.3-2.8,2.4-2.7c0.2,1.4,0.4,2.8,0.6,4.3c0.3,0,0.5-0.1,0.8-0.1c0.2-3.6,1-7.2-0.5-10.9c-0.5-1.1,0.7-3,1.3-4.4
			c0.8-1.7,2.1-3.1,2.7-4.9c1.3-4.1,2.1-8.4,3.4-12.5c0.4-1.3,1.5-2.5,2.4-3.8c0.4-2.6,0.2-5.7,1.4-8.1c1.1-2.1,0.2-3.2-0.2-4.8
			c-0.5-1.8-0.3-3.8-0.8-5.6c-0.7-2.5-0.8-2.4,0.6-3.7c-1-0.8-2-1.5-3-2.4c-0.3-0.3-0.5-1.2-0.4-1.2c2.8-1.1,0.7-4,2.2-5.6
			c-0.2-0.2-0.4-0.4-0.6-0.6c-0.7,0.5-1.4,1.1-2.1,1.6c-0.4,0.3-0.9,1-1.2,0.9c-0.5-0.2-1.1-0.7-1.4-1.3c-1-2.1,0.5-7.6,2.9-8.6
			c2.7-1.2,2.1-2.7,1.2-4.4c-0.6-1.1-1.4-2-2.3-2.9c-1.9-1.8-3.4-3.8-2.3-6.5c0.8-2,0-2.4-1.8-2.5c-2.1-0.1-3.7-3.5-2.8-5.3
			c0.6-1.1,0.9-2.4,1.4-3.8c-4.6-0.4-8.7-0.4-12.7-1.2c-2.8-0.6-3.1,1.2-3.8,2.7c-0.5,1.1-0.3,2.6-0.4,4.1c-0.7-0.1-1.8,0-1.9-0.3
			c-1-2.4-1.8-4.9-2.9-8c0.1,0-0.6-0.1-1.5-0.4c0.2-2.3,0.4-4.7,0.7-7.7c-1.6-0.5-3.8-1.3-6-2c-1.4-3.4-2.7-7.1-4.3-10.7
			c-0.4-0.9-2.1-2-2.6-1.8c-3.3,1.8-3.7-1.4-4.8-2.8c-1.2-1.6-2.4-2.6-4.6-2.8c-1.1-0.1-2.2-1.1-3.4-1.7c0-4.7,0-9.3,0-13.5
			c-1.6-1-3-1.6-4.2-2.5c-3.2-2.4-6.3-5-9.3-7.5c-0.2-0.1-0.2-0.6-0.2-0.8c0.4-3.7-2.4-6.1-3.7-9.1c-0.7-1.5-2-2.8-3.4-3.8
			c-3.2-2.3-6.2-4.6-10-6c-3.9-1.4-7.2-4.4-10.6-6.8c-1.5-1.1-2.8-2.5-4.3-3.6c-0.6-0.5-1.6-1.1-2.3-0.9c-3,0.4-6,1.2-9,1.6
			c-1.4,0.2-2.9-0.1-4.3-0.3c-1.5-0.2-2.8-0.8-4.4,0.3c-2.3,1.6-5.5,1.8-7.1,4.4c-0.4,0.6,0,1.6,0,2.4c0,0.2,0.6,0.5,0.6,0.6
			c-1.1,2.2,0.8,4.2,0.6,6.4c-0.2,2.5-2.3,2.7-3.8,2.8c-1.6,0.1-3.4-0.6-5-1.1c-0.3-0.1-0.3-1.2-0.5-2.4c-3,2.3-8.2-0.2-10,4.3
			c-1.3,0.3-2.1,0.3-2.7,0.7c-6.7,3.6-13.4,7.2-20.2,10.8c-1,0.5-1.9,1.3-2.7,1.8c0.5,1.4,0.8,2.5,1.2,3.9c5.4-0.6,8.7-6,13.6-8.4
			c0.2,0.2,0.4,0.4,0.7,0.6c-0.3,0.8-0.2,2-0.8,2.5c-3.6,2.9-6.5,6.5-11.6,7.6c-3.3,0.7-6.3,2.9-9.4,4.5c-1,0.5-2,0.8-3,1.2
			c-2.5,0.8-5,2.4-6.9-1.2c-0.5-0.9-2.1-1.1-3.2-1.7c-1.2-0.6-2.6-1-3.6-1.9c-4-3.7-8.6-4.1-13.6-2.8c-0.8,0.2-2.4,0-2.7-0.5
			c-2.8-5.4-5-11-3.5-17.2c0.3-1.1,1.6-2,2.4-3c0.3,0.2,0.7,0.3,1,0.5c-0.1,0.8,0,1.6-0.3,2.3c-2.5,5,0.3,9.4,1.5,13.9
			c0.2,0.6,1.6,0.8,2.8,1.4c0.7-5.4,2.2-10.1-1.5-14.5c-1.7-2-2.6-4.7-4.4-6.6c-1.2-1.3-3.2-1.8-4.9-2.6c-1.5-0.8-3.2-1.4-4.6-2.3
			c-0.4-0.2-0.2-1.4-0.2-2.5c-3.1,0.9-3.7-2.2-5.5-4.1c-1.5-1.6-4-2.3-5.9-3.7c-2.5-1.8-4.7-4-7.1-5.9c-2.5-2-5-4.1-7.7-5.8
			c-11.5-7.2-23.9-12.5-37.1-15.8c-4.7-1.2-9.6-1.7-14.4-2.3c-5.3-0.6-10.6-1.3-15.8-1.1c-6.2,0.2-12.4,1.3-18.6,2.1
			c-7.6,1-15.3,3.1-22.9,2.8c-7.2-0.3-13.8,1.8-20.7,2.6c-1,0.1-1.9,0-2.9,0c-0.1-0.3-0.2-0.7-0.3-1c1.6-0.6,3.3-1.2,4.6-1.6
			c-0.4-0.5-1-1.3-2.2-2.7c1.9,0,3,0.1,4,0c1.4-0.2,2.9-0.2,1.8-2.6c-0.5-1,0.7-2.8,1.1-4.2c2.1-0.6,4.1-1.2,6.9-2
			c-1.1-0.6-1.7-1.1-2.4-1.3c-2.1-0.7-3.6-1.6-4.8-3.7c-1.7-3-0.8-5.1,0.8-7.4c1.1-1.6,2.3-3.3,2.7-5.2c0.5-1.9,0.4-4.1-2-5.3
			c-1.9-1-3.8-2.1-5.3-3.6c-1.5-1.3-2.5-3.2-3.7-4.8c-1.6-2.1-3.2-4.3-5-6.3c-1.5-1.7-2.5-3.3-0.9-5.6c1.2-1.7,2.2-3.7,2.8-5.7
			c0.4-1.4,0.1-3,0.1-5c3.5,0.2,7,0.5,10.5,0.7c0.4,0,0.8,0,1.2,0.1c7.2,0.2,14.4,0.3,21.6,0.6c9.1,0.3,18.1,0.7,27.2,1.2
			c10,0.5,20,1.3,30,1.7c10.3,0.5,20.7,0.8,31,1.2c5.4,0.2,10.8,0.4,16.3,0.6c7.6,0.2,15.2,0.4,22.8,0.6c10.2,0.2,20.4,0.4,30.5,0.6
			c4.8,0.1,9.6,0.5,14.1,0.7c0.9,1.5,1.8,2.8,2.4,4.2c0.5,1.3,0.3,3,1.1,4.1c2,2.9,2.3,5.8,2.2,9.2c-0.1,2.1,2,4.1,2.7,6.3
			c1,3,3.2,2.8,5.6,3c9.1,0.7,18.1,1.6,27.2,2.3c6.9,0.5,13.7,0.7,20.6,1.2c8.7,0.7,17.3,1.6,26,2.3c5.3,0.5,10.6,0.8,15.8,1.2
			c8.8,0.8,17.5,1.6,26.3,2.3c2.8,0.2,5.7,0.5,8.5,0.6c9.4,0.6,18.8,1.2,28.2,1.8c7.6,0.5,15.2,1.2,22.9,1.8
			c9.8,0.8,19.7,1.6,30.1,2.5c-2.4,3.1-1.5,5.4,0.9,7.6c0.4,0.4,0.1,1.6,0.1,2.4c0.1,2.1,0.1,4.3,0.5,6.3c0.4,1.8,1.6,2.8,3.9,2.1
			c1.4-0.4,3.1,0.4,4.6,0.5c1.6,0.1,3.1,0,2.1-2.4c-0.3-0.7,0.2-1.7,0.3-2.6c0.7-4.3,1.6-8.6,2.2-12.9c0.1-1.1-0.4-2.4-1-3.4
			c-1.5-2.9-3-5.7-1.6-9.1c0.3-0.7-0.1-1.7,0.1-2.5c0.3-1.2,0.9-2.3,1.7-3.2c0.2-1,0.2-2.4,0.7-2.7c0.8-0.4,2.1,0,3.5,0.1
			c0.1-0.4,0.1-1.4,0.7-2.1c0.6-0.8,1.6-1.4,2.6-1.8c0.7-0.3,1.6-0.2,2.3,0c0.8,0.3,1.5,0.9,2.2,1.3c1.2,0.7,2.3,1.8,3.5,2
			c3.3,0.5,6.4,1.2,8.8,3.8c0.3,0.4,1.2,0.6,1.6,0.4c3.1-1.1,5.3,0.5,7.7,2.1c1.1,0.8,3.3,1.3,4.5,0.7c4-1.8,6.9,2.5,10.7,0.9
			c-0.4,4.8-1.1,9-1.1,13.1c0,2.4,0.1,4.8,1.9,7.3c1.6,2.2,1.6,5.8,1.5,8.8c-0.2,6.8,2,13.1,3.4,19.5c1.4,6.2,2.5,12.5,3.9,18.8
			c0.3,1.6,1.3,3,1.7,4.6c0.9,3.5,1.4,7,2.4,10.4c2.3,7.4,4.7,14.8,7.5,22c3.6,9.3,7.5,18.5,11.6,27.6c3.1,6.8,6.5,13.4,10.3,19.9
			c6.8,11.7,14,23.3,21.1,34.9c1,1.7,2.5,3.1,3.5,4.8c0.8,1.4,1.3,3,1.9,4.5c1,2.6,2.1,5.2,2.9,7.9c0.3,0.9-0.1,2.9-0.6,3.1
			c-4.7,1.7-5.4,5.7-5.1,9.5c0.5,6.4,1.1,12.9,3.1,18.9c2.6,7.8,6.5,15.1,9.9,22.6c3.1,7,6.4,13.8,8.4,21.3c2.3,8.1,5.5,16,8.6,23.9
			c2.2,5.6,5.2,10.8,7.2,16.4c4,11.8,7.6,23.7,11.3,35.6c0.4,1.4-0.3,3-0.3,4.6c0,3.7,0.2,7.4,0.1,11.1c-0.2,4.5-0.5,9.1-0.9,13.6
			c-0.2,2.7-0.7,5.4-1,8.1c-0.7,6-1.5,12-2.2,18c-0.4,3.4-1.1,6.8-1.2,10.2c-0.2,7.7-0.1,15.5-0.3,23.2c0,1.7-0.7,3.4-1.1,5.1
			c-0.7,3.4-1.2,6.9-1.9,10.3c-0.1,0.3-0.5,0.6-0.9,1.1c-1.8-1.6-4.6-2.7-2.2-5.9c0.1-0.1-1.2-1.3-1.3-1.3c-1.1,1-2.6,1.8-3.2,3.1
			c-1.3,2.7-1.5,6-4.3,8c-0.6,0.4-0.5,1.8-0.7,2.8c-0.5,1.9-0.7,3.9-1.5,5.7c-0.8,1.8-1.8,3.3-0.9,5.4c0.6,1.4,0.5,3,0.7,4.5
			c0,0.3-0.1,0.8,0.1,0.9c1.8,1.2,2.5,2.4,0.7,4.2c-1.1,1.1-2.1,2.3-3.2,3.5C582.8,623.3,582.3,623.9,581.7,624.6z"/>
		<path fill="#CCCCCC" d="M503.7,679.2c0,0.2,0,0.4,0,0.6c1.1,3.5,1.1,3.5,4.7,2.1c0.5-0.2,1.1,0,1.7,0c-1,2-1,2-10.3,4.9
			c-0.2-0.7-0.4-1.4-0.6-1.8c-3.6,0-7.1,0-10.9,0c0.2,2-1.4,3.2-3.9,3.8c-2.1,0.5-4.1,1.6-6.2,2.4c-0.6,0.2-1.6-0.1-1.9,0.3
			c-3.7,3.8-8.9,2-13.2,3.3c-0.4,0.1-0.9-0.2-1.5-0.3c0.5-1.7,0.9-3.3,1.5-5.6c0.7,1.2,1.2,2,1.6,2.7c1.5-0.3,3.1-0.6,5.1-1
			c0.8-1.9,3.6-2.8,7-1.7c0.5-1.6,0.7-3.3,1.6-4.6c0.5-0.8,2.2-0.7,3.5-1c0.1-3.2,0.5-3.4,3.8-1.5c0.1-0.9,0.2-1.7,0.3-2.3
			c2-0.4,3.7-0.7,5.6-1c-0.2-1.8-0.3-3.4-0.4-4.6c2.3,0,4.4-0.1,6.5,0.1c0.5,0,1.4,1.3,1.2,1.7c-1.2,3.5,1.1,3.4,3.4,3.5
			C502.8,679.2,503.3,679.3,503.7,679.2L503.7,679.2z"/>
		<path fill="#CCCCCC" d="M526.8,678.6c-0.8,0.5-2.1,0.8-2.3,1.4c-0.9,2.9-3.1,1.7-4.7,1.4c-0.7-0.1-1.2-1.4-1.9-2.2
			c0.7-0.4,1.3-1,2-1.2c4.5-1.8,9-3.5,13.5-5.2c1.2-0.4,2.4-0.6,3.7-0.7c0.3,0,0.9,0.9,0.9,1.3c-0.1,0.5-0.7,1.5-1.1,1.4
			c-3-0.3-4.7,2.2-7,3.2c-0.9,0.4-1.9,0.8-2.8,1.2C527.1,679.1,526.9,678.8,526.8,678.6z"/>
		<path fill="#CCCCCC" d="M540.9,670.7c2.1-1.6,3.3-4.3,6.4-4.6c3.3-0.3,5.4-1.8,6.1-5.1c0.1-0.3,0.4-0.6,0.9-1
			c1.8,1.7,2.5,3.3,0.6,5.1c-1.1,1.1-2.4,1.9-3.8,2.6c-2.3,1.3-4.7,2.5-7.2,3.5c-0.8,0.3-1.8,0.2-2.7,0.3
			C541.2,671.2,541,670.9,540.9,670.7z"/>
		<path fill="#CCCCCC" d="M434,694.6c-0.2-0.1-1.5-0.6-1.7-1.3c-0.4-1.3,2.4-4.5,3.4-4.1c1.1,0.5,2.6,1.6,2.8,2.6
			C438.9,693.6,437.3,694.6,434,694.6z"/>
		<path fill="#CCCCCC" d="M233.8,213.3c2.9-1.5,5.6-2.9,8.3-4.3c0.2,0.1,0.5,0.2,0.7,0.3c-0.5,0.9-0.7,2.1-1.4,2.7
			C237.7,214.5,235.2,214.8,233.8,213.3z"/>
		<path fill="#CCCCCC" d="M476.8,683.9c-1.3-0.9-2.6-1.9-3.9-2.9c-0.2-0.2-0.2-0.8-0.1-1.1c0.1-0.3,0.8-0.5,0.9-0.4
			c1.3,1,2.6,2.1,3.9,3.2C477.5,683.1,477.1,683.5,476.8,683.9z"/>
		<path fill="#CCCCCC" d="M503.8,679.3c-0.7-1.2-1.5-2.5-2.2-3.7c0.3-0.3,0.6-0.5,1-0.8c1,1,1.9,2,2.9,3c-0.6,0.5-1.1,1-1.7,1.5
			C503.7,679.2,503.8,679.3,503.8,679.3z"/>
	</g>
</g>
<g id="Color">
	<g>
		<path fill="#27B5E9" d="M525.3,263.5c3.1,6.8,6.5,13.4,10.3,19.9c6.8,11.7,14,23.3,21.1,34.9c1,1.7,2.5,3.1,3.5,4.8
			c0.8,1.4,1.3,3,1.9,4.5c1,2.6,2.1,5.2,2.9,7.9c0.3,0.9-0.1,2.9-0.6,3.1c-4.7,1.7-5.4,5.7-5.1,9.5c0.5,6.4,1.1,12.9,3.1,18.9
			c2.6,7.8,6.5,15.1,9.9,22.6c3.1,7,6.4,13.8,8.4,21.3c2.3,8.1,5.5,16,8.6,23.9c2.2,5.6,5.2,10.8,7.2,16.4
			c4,11.8,7.6,23.7,11.3,35.6c0.4,1.4-0.3,3-0.3,4.6c0,3.7,0.2,7.4,0.1,11.1c-0.2,4.5-0.5,9.1-0.9,13.6c-0.2,2.7-0.7,5.4-1,8.1
			c-0.7,6-1.5,12-2.2,18c-0.4,3.4-1.1,6.8-1.2,10.2c-0.2,7.7-0.1,15.5-0.3,23.2c0,1.7-0.7,3.4-1.1,5.1c-0.7,3.4-1.2,6.9-1.9,10.3
			c-0.1,0.3-0.5,0.6-0.9,1.1c-1.8-1.6-4.6-2.7-2.2-5.9c0.1-0.1-1.2-1.3-1.3-1.3c-1.1,1-2.6,1.8-3.2,3.1c-1.3,2.7-1.5,6-4.3,8
			c-0.6,0.4-0.5,1.8-0.7,2.8c-0.5,1.9-0.7,3.9-1.5,5.7c-0.8,1.8-1.8,3.3-0.9,5.4c0.6,1.4,0.5,3,0.7,4.5c0,0.3-0.1,0.8,0.1,0.9
			c1.8,1.2,2.5,2.4,0.7,4.2c-1.1,1.1-2.1,2.3-3.2,3.5c-0.6,0.6-1.1,1.3-1.7,2c4.2,1.5,5.4-1.7,7-3.7c2.1-2.7,3.9-5.7,5.4-8.7
			c0.9-1.8,0.9-3.9,1.5-5.9c0.3-1.2,0.9-2.2,1.5-3.5c2.2,1.6,1.7,3.8,1,5.4c-2.2,5.2-4.9,10.2-7.4,15.3c-2.2,4.7-4.2,9.5-6.7,14
			c-1.3,2.4-3.4,4.3-5.3,6.3c-0.9,1-2.9,1.3-1.8,3.3c-1,0.5-2,0.9-3.4,1.6c-3.1,2.8-5.1,7.7-10.2,9.7c-1,0.4-1.6,1.9-2.5,2.7
			c-0.8,0.7-1.8,1.1-3.1,1.8c-0.8-3.1,1.8-4.1,2.7-5.7c0.6-1.1,2.1-2.1,3.3-2.3c3.1-0.4,2.8-2.6,2.7-3.6c2.7-2.3,4.8-4.2,7.4-6.5
			c-1.5-0.5-2.4-0.8-3.6-1.2c1.4-3.2,5-5.9,3.4-9.2c-2.1-0.5-3.4-0.8-4.5-1c-0.1,3.5-3.6,0.6-5.2,2.6c0.4,0.3,1.1,0.7,1.7,1.3
			c0.6,0.6,1,1.4,1.6,2.1c-0.3,0.2-0.5,0.5-0.8,0.7c-1.8-1.1-3.7-2.1-5.8-3.4c-0.6,0.6-2.9,1.1-0.2,3c0.4,0.3,0.6,1.3,0.5,1.9
			c-0.2,1.3-0.6,2.6-0.9,4.2c-3.3-2.3-6.6-4.6-10.2-7.1c-0.7,1-0.9,1.6-1.3,1.9c-0.5,0.4-1.1,1-1.6,1c-0.4,0-1.2-0.9-1.2-1.3
			c0.4-3-3.2-1.4-3.7-3.3c-1,0.7-2,1.5-3,2.2c-0.6,0.5-1.3,1.2-2,1.3c-3.4,0.5-7.1,0.1-10.1,1.4c-4.3,2-6.3-1.3-9.1-2.7
			c-1.2-0.6-3.4-8.6-3.1-10.3c0.6-2.5,0.4-5.5,1.9-7.2c1.8-2.1,0.5-2.7,0.1-4.6c-0.9-3.8-2.6-6.7-4.9-9.5c-0.2-0.2-0.6-0.5-0.5-0.7
			c1.5-3.7-3.1-5.8-2.4-9.4c0.2-0.8-1.3-1.9-2-2.9c-0.6-0.8-1.2-1.5-1.7-2.2c-0.8-1.2-1.6-2.4-2.5-2.6c-1.2,0.2-2.5,0.4-4.4,0.7
			c0.5-1.4,0.7-1.9,0.9-2.4c0.7-1.4,1-2.5-1.1-3.1c-2.1-0.6-1.5-1.8,0.6-3.5c-4.3,0.5-7.5-0.4-10.1-3c-2.2-2.2-6.6-2-7.5-6.3
			c-0.9-0.2-2.3-0.5-3.6-0.6c-1.6-0.1-2.7,0.5-2.9,2.4c-0.1,0.7-1,1.4-1.6,2.1c-0.6-0.6-1.5-1-1.9-1.7c-1.5-2.5-3.1-4.9-4.1-7.5
			c-2-5.7-4.3-11.4-5.3-17.3c-1.2-7.6-2-15.2-5-22.3c-0.6-1.3-2.1-2.2-2.9-3.5c-2.1-3.4-9.9-7.4-13.5-6.6c-0.4,0.1-0.8,0.4-1,0.5
			c2.1,0.4,4.3,0.9,6.5,1.4c-0.6,4.3-6.3,5.7-10.2,3c-3.7-2.6-5.9-5.6-6.5-10.2c-0.4-3.2-2.2-6.3-3.4-9.4c-0.2-0.5-0.6-1-1-1.4
			c-1.2-1-3.9-1.8-0.3-3.3c0.3-0.1,0.5-1,0.5-1c-3.4-2,0.4-6-2.5-8.6c-2.2-2-3.4-5.3-4.8-8.1c-3.3-6.5-6.6-12.9-9.7-19.5
			c-2.1-4.3-3.5-8.9-6-12.9c-3.7-6-8.3-11.4-11.8-17.4c-2.1-3.6-3.1-7.9-4.6-11.9c-0.2-0.6-1.1-1-1.2-1.6c-0.2-0.8-0.1-2.4,0.1-2.5
			c2.7-0.8,0.9-2.5,0.9-3.9c0.6-0.3,1.3-0.7,1.6-0.8c-0.4-1.6-0.4-3.1-1-4.2c-1.5-2.7-2.9-5.7-5.1-7.9c-4-3.9-5.1-9.4-2.8-14.5
			c1.4-3.1,1.6-6.6,0.5-10c-0.6-1.8,0.3-2.8,2.4-2.7c0.2,1.4,0.4,2.8,0.6,4.3c0.3,0,0.5-0.1,0.8-0.1c0.2-3.6,1-7.2-0.5-10.9
			c-0.5-1.1,0.7-3,1.3-4.4c0.8-1.7,2.1-3.1,2.7-4.9c1.3-4.1,2.1-8.4,3.4-12.5c0.4-1.3,1.5-2.5,2.4-3.8c0.4-2.6,0.2-5.7,1.4-8.1
			c1.1-2.1,0.2-3.2-0.2-4.8c-0.5-1.8-0.3-3.8-0.8-5.6c-0.7-2.5-0.8-2.4,0.6-3.7c-1-0.8-2-1.5-3-2.4c-0.3-0.3-0.5-1.2-0.4-1.2
			c2.8-1.1,0.7-4,2.2-5.6c-0.2-0.2-0.4-0.4-0.6-0.6c-0.7,0.5-1.4,1.1-2.1,1.6c-0.4,0.3-0.9,1-1.2,0.9c-0.5-0.2-1.1-0.7-1.4-1.3
			c-1-2.1,0.5-7.6,2.9-8.6c2.7-1.2,2.1-2.7,1.2-4.4c-0.6-1.1-1.4-2-2.3-2.9c-1.9-1.8-3.4-3.8-2.3-6.5c0.8-2,0-2.4-1.8-2.5
			c-2.1-0.1-3.7-3.5-2.8-5.3c0.6-1.1,0.9-2.4,1.4-3.8c-4.6-0.4-8.7-0.4-12.7-1.2c-2.8-0.6-3.1,1.2-3.8,2.7c-0.5,1.1-0.3,2.6-0.4,4.1
			c-0.7-0.1-1.8,0-1.9-0.3c-1-2.4-1.8-4.9-2.9-8c0.1,0-0.6-0.1-1.5-0.4c0.2-2.3,0.4-4.7,0.7-7.7c-1.6-0.5-3.8-1.3-6-2"/>
		<path fill="#27B5E9" d="M502.7,679.5c0,0.2,0,0.4,0,0.6c1.1,3.5,1.1,3.5,4.7,2.1c0.5-0.2,1.1,0,1.7,0c-1,2-1,2-10.3,4.9
			c-0.2-0.7-0.4-1.4-0.6-1.8c-3.6,0-7.1,0-10.9,0c0.2,2-1.4,3.2-3.9,3.8c-2.1,0.5-4.1,1.6-6.2,2.4c-0.6,0.2-1.6-0.1-1.9,0.3
			c-3.7,3.8-8.9,2-13.2,3.3c-0.4,0.1-0.9-0.2-1.5-0.3c0.5-1.7,0.9-3.3,1.5-5.6c0.7,1.2,1.2,2,1.6,2.7c1.5-0.3,3.1-0.6,5.1-1
			c0.8-1.9,3.6-2.8,7-1.7c0.5-1.6,0.7-3.3,1.6-4.6c0.5-0.8,2.2-0.7,3.5-1c0.1-3.2,0.5-3.4,3.8-1.5c0.1-0.9,0.2-1.7,0.3-2.3
			c2-0.4,3.7-0.7,5.6-1c-0.2-1.8-0.3-3.4-0.4-4.6c2.3,0,4.4-0.1,6.5,0.1c0.5,0,1.4,1.3,1.2,1.7c-1.2,3.5,1.1,3.4,3.4,3.5
			C501.8,679.6,502.3,679.6,502.7,679.5L502.7,679.5z"/>
		<path fill="#27B5E9" d="M525.8,678.9c-0.8,0.5-2.1,0.8-2.3,1.4c-0.9,2.9-3.1,1.7-4.7,1.4c-0.7-0.1-1.2-1.4-1.9-2.2
			c0.7-0.4,1.3-1,2-1.2c4.5-1.8,9-3.5,13.5-5.2c1.2-0.4,2.4-0.6,3.7-0.7c0.3,0,0.9,0.9,0.9,1.3c-0.1,0.5-0.7,1.5-1.1,1.4
			c-3-0.3-4.7,2.2-7,3.2c-0.9,0.4-1.9,0.8-2.8,1.2C526.1,679.4,525.9,679.1,525.8,678.9z"/>
		<path fill="#27B5E9" d="M539.9,671c2.1-1.6,3.3-4.3,6.4-4.6c3.3-0.3,5.4-1.8,6.1-5.1c0.1-0.3,0.4-0.6,0.9-1
			c1.8,1.7,2.5,3.3,0.6,5.1c-1.1,1.1-2.4,1.9-3.8,2.6c-2.3,1.3-4.7,2.5-7.2,3.5c-0.8,0.3-1.8,0.2-2.7,0.3
			C540.2,671.5,540,671.2,539.9,671z"/>
		<path fill="#27B5E9" d="M433,695c-0.2-0.1-1.5-0.6-1.7-1.3c-0.4-1.3,2.4-4.5,3.4-4.1c1.1,0.5,2.6,1.6,2.8,2.6
			C437.9,693.9,436.3,695,433,695z"/>
		<path fill="#27B5E9" d="M475.8,684.2c-1.3-0.9-2.6-1.9-3.9-2.9c-0.2-0.2-0.2-0.8-0.1-1.1c0.1-0.3,0.8-0.5,0.9-0.4
			c1.3,1,2.6,2.1,3.9,3.2C476.5,683.4,476.1,683.8,475.8,684.2z"/>
		<path fill="#27B5E9" d="M502.8,679.6c-0.7-1.2-1.5-2.5-2.2-3.7c0.3-0.3,0.6-0.5,1-0.8c1,1,1.9,2,2.9,3c-0.6,0.5-1.1,1-1.7,1.5
			C502.7,679.5,502.8,679.6,502.8,679.6z"/>
	</g>
</g>
</svg>
