<?xml version="1.0" encoding="utf-8"?>
<!-- Generator: Adobe Illustrator 18.0.0, SVG Export Plug-In . SVG Version: 6.00 Build 0)  -->
<!DOCTYPE svg PUBLIC "-//W3C//DTD SVG 1.1//EN" "http://www.w3.org/Graphics/SVG/1.1/DTD/svg11.dtd">
<svg version="1.1"
	 id="svg2" inkscape:version="0.46" sodipodi:docname="Ga_motto.svg" sodipodi:docbase="/media/WD_USB_2/jake/Documents/Images/Made/wikipedia" inkscape:output_extension="org.inkscape.output.svg.inkscape" sodipodi:version="0.32" xmlns:rdf="http://www.w3.org/1999/02/22-rdf-syntax-ns#" xmlns:cc="http://creativecommons.org/ns#" xmlns:sodipodi="http://sodipodi.sourceforge.net/DTD/sodipodi-0.dtd" xmlns:dc="http://purl.org/dc/elements/1.1/" xmlns:svg="http://www.w3.org/2000/svg" xmlns:inkscape="http://www.inkscape.org/namespaces/inkscape"
	 xmlns="http://www.w3.org/2000/svg" xmlns:xlink="http://www.w3.org/1999/xlink" x="0px" y="0px" viewBox="0 0 591.6 755.4"
	 enable-background="new 0 0 591.6 755.4" xml:space="preserve">
<sodipodi:namedview  inkscape:window-height="719" inkscape:current-layer="svg2" inkscape:window-y="25" inkscape:pageopacity="0.0" inkscape:pageshadow="2" inkscape:window-width="951" inkscape:window-x="0" inkscape:cx="76.597541" inkscape:zoom="0.63281167" borderopacity="1.0" bordercolor="#666666" pagecolor="#ffffff" inkscape:cy="388.34472" showgrid="false" id="base">
	</sodipodi:namedview>
<g id="grey">
	<path id="path10" fill="#CCCCCC" d="M2.3,53.8c0.2,7.5,1.4,13.1,2.6,12.6c0.9-0.7,1.6,3,0.9,8.2c-0.5,5.1,0.2,8.9,1.2,8.2
		c1.2-0.7,1.9,3,1.2,8.2c-0.5,5.1,0.2,8.9,1.4,8.2c0.9-0.7,1.6,2.3,0.9,7c-0.5,4.7,0,7.7,1.2,7c1.4-0.7,1.9,2.3,1.2,7
		c-0.5,4.7-0.2,8,0.7,7.5c2.1-1.4,4.9,28.8,3,32c-1.2,1.6-0.5,1.9,1.4,0.7c2.1-1.4,2.6,0.5,1.9,7.7c-0.5,5.1-0.2,9.1,0.7,8.7
		c2.1-1.4,7.3,42.8,5.4,45.8c-1.2,1.9-0.7,2.1,1.4,0.9c2.1-1.4,2.6,0.5,1.9,7.7c-0.5,5.1-0.2,9.1,0.7,8.4c1.9-0.9,4.9,21.3,5.4,38.1
		c0,6.5,0.9,11.5,2.1,10.8c0.9-0.5,1.6,1.9,1.6,5.6c0,3.5,0.9,10.1,2.1,14.3c1.4,4.2,1.4,7,0.7,6.5c-0.9-0.7-1.9,0.9-1.9,3.3
		c0,2.3,0.9,3.7,2.3,3c1.2-0.9,1.6,3,0.9,9.8c-0.9,6.8-0.5,9.8,0.7,8c1.4-2.3,2.1-0.9,2.1,4.2c0,4,0.9,8.2,2.3,8.9
		c1.2,0.7,2.3,2.6,2.3,3.7c0,1.4-1.4,1.6-2.8,0.7c-2.3-1.4-2.3-1.2-0.2,1.9c1.6,1.9,2.1,4.4,1.2,5.4c-0.9,1.2-0.2,1.2,1.6,0
		c2.6-1.4,3-0.7,2.1,3c-0.9,3.3-0.5,4.7,0.9,3.7c1.6-1.2,2.1,0.5,1.4,4.4c-0.7,3.7-0.2,5.6,1.2,4.7c1.4-0.9,1.9,0.9,1.2,4.9
		c-0.7,3.5-0.7,5.6,0,4.9c1.2-1.2,5.1,4.9,10.1,15.2c1.4,3.3,3.5,7.7,4.7,9.8c1.2,2.6,1.2,6.5-0.5,10.5c-2.1,5.6-1.6,7,3.5,11.2
		c3.3,2.8,6.1,5.8,6.1,7.3c0,1.4-4.4,6.3-10.1,11c-9.8,8.2-11,11.2-11,26c-0.2,3.7-2.3,10.5-4.9,14.7c-3.5,5.4-4.7,10.8-4,16.8
		c0.5,5.1-0.2,8.7-1.2,8c-1.2-0.7-0.9,0.9,0.5,3.3c1.4,2.6,1.9,5.4,1.2,6.1c-0.7,0.7,0,1.9,1.6,3c1.9,1.2,2.3,0.7,0.9-1.6
		c-1.4-2.6-1.2-2.8,1.2-0.5c1.9,1.6,3.3,6.5,3.3,11c0.2,4.4,1.2,7.5,2.3,6.5c1.2-0.7,1.4,1.2,0.7,4.4c-0.9,3-1.6,6.5-1.6,7.5
		c0,1.2-0.9,1.4-1.9,0.7c-0.9-0.5-2.1,1.2-2.1,4c-0.5,4.2,0,4.4,1.9,1.6c2.1-2.8,2.3-2.6,0.9,1.2c-3,9.6-5.4,25-4,29.7
		c0.9,3.7,0.5,4.4-2.1,2.8c-2.1-1.2-1.9,0,0.9,3.7c7.3,10.3,18.9,38.8,22,53.8c3,15.7,3,15.7,38.8,17.5c18.2,0.9,36.3,2.1,40.2,2.3
		c4,0.2,19.6,1.4,35.1,2.1c15.4,0.9,31.8,2.1,36.3,2.6c4.4,0.5,20.8,1.6,36.3,2.3c15.4,0.7,40.7,2.3,56.1,3.5
		c24.3,1.9,62.9,4.2,93.5,5.8c6.3,0.2,9.1,1.4,8.7,3.5c-0.5,1.6,0.5,6.1,2.1,9.8c2.1,5.1,2.1,7.3-0.5,10.5c-2.3,2.6-2.3,3.3-0.2,2.1
		c1.6-0.9,2.8-0.5,2.8,1.6s2.8,3.3,8.2,3.3c6.8,0,8.2-0.9,8.4-4.9c0-2.8,0.9-10.3,1.9-17.1c1.2-7.7,0.9-11.7-0.5-10.8
		c-1.4,0.9-1.9-0.7-1.2-3.5c0.9-2.8,0.5-4.7-0.7-3.7c-1.2,0.7-2.1-0.9-2.1-3.7c0-3.3,0.9-4.4,3-3.3c1.9,1.4,1.9,0.7-0.2-2.1
		c-5.1-6.3-0.7-15,7.3-13.6c0.9,0,1.6-1.4,1.6-3.3c0-2.1,2.3-3.5,6.1-3.5c3.3,0,5.4,0.9,4.7,1.9c-0.5,0.9,1.2,2.1,4,2.1
		c2.8,0.2,5.4,1.6,5.8,3c0.5,1.2,1.9,1.6,3,0.9c1.4-0.7,3.5-0.2,5.1,0.9c4.9,4,25.7,7.5,29,4.7c1.6-1.4,2.3-3.5,1.4-4.7
		c-2.8-4.9-2.3-18.7,0.9-22c3-2.8,2.8-3.3-0.2-3.3c-5.4,0-4.7-3,2.1-9.4c4.4-4.2,5.1-6.1,3-7.5c-2.3-1.4-2.3-1.9,0-1.9
		c1.6,0,2.3-1.2,1.6-2.3c-4-6.5-3.3-18.2,1.6-28.5c5.1-10.5,13.6-18.5,10.3-9.6c-1.4,3.3-0.9,3.5,1.2,1.4c2.8-2.8,0.7-8.7-2.6-6.5
		c-1.2,0.7-1.6-3.3-1.2-8.7c0.5-5.6,2.1-10.3,3.5-10.8c1.9-0.7,1.9-1.9,0-4c-3-3.5,0.9-7,8-7c3,0,4.7-1.9,5.1-6.5
		c0.2-3.5-0.5-6.3-1.6-6.3c-1.4,0-1.6-1.2-0.7-2.6c0.9-1.9,2.1-1.6,3.5,0.5c1.2,1.9,2.1,2.1,2.1,0.9c0-1.4-1.2-3.7-2.6-5.1
		c-3.3-3.3,5.8-9.8,12.9-9.1c8.2,0.9,7.5-7.7-0.9-10.5c-8.2-3-10.8-8.7-5.8-13.6c2.6-2.6,3.5-2.8,3.5-0.7c0,1.6,0.9,2.6,2.1,1.9
		s4.9,0.2,8.7,2.1c7.3,3.7,13.1,1.9,7.3-2.3c-5.4-3.7-4.9-7.5,0.7-9.4c2.6-0.7,4.4-2.6,4-4c-0.9-5.4-7.5-11.2-12.6-11.2
		c-7.5,0-13.1-6.5-11.9-14.3c0.7-3.5,0.2-6.1-0.9-5.4c-0.9,0.7-1.9-1.4-1.9-4.7c0-3.3,1.2-6.5,2.3-7.3c1.4-0.9,0.5-3-2.1-5.4
		c-2.6-2.1-5.1-7-5.6-10.5c-0.9-8-11.9-20.1-20.8-23.2c-7.7-2.8-9.6-8.4-9.8-29c-0.2-9.8-1.2-14-2.8-13.3c-2.3,0.9-9.6-14.3-8.7-18
		c1.9-8.7,1.6-10.5-2.8-10.5c-2.6,0-4.4-1.4-4-3c0.2-1.9-0.5-2.6-1.6-1.6c-4.9,3-21.3-8.4-30.4-21.3c-5.1-7.3-8.9-14-8.4-15
		c0.7-0.9-0.7-1.6-3-1.4c-3,0.2-4.2-1.9-4.7-8.9c-0.5-5.1-2.6-10.5-4.4-11.9c-2.1-1.6-3-3.7-2.3-5.1c0.7-1.2-3.3-4.7-9.1-7.5
		c-5.6-2.8-9.8-6.3-9.1-7.5c0.9-1.2,0-1.4-1.9-0.7c-4,1.4-11.9-12.2-9.4-16.1c0.7-1.4,0.2-1.6-1.2-0.7c-1.6,0.9-2.8,0.5-2.8-0.9
		c0-3.3-11-13.6-19.4-17.8c-3.7-2.1-5.8-4.7-4.9-6.1c0.9-1.6,0.7-1.9-0.9-0.9c-3,1.9-15-7.7-13.1-10.8c0.7-1.2,0.2-1.6-0.9-1.4
		c-1.4,0.5-2.6-0.2-2.8-1.6c-0.2-1.4-2.3-5.6-4.9-9.6c-2.3-4-3.5-8-2.6-8.9c0.9-0.9,0.7-1.6-0.7-1.4c-5.6,1.2-8.4-0.2-8-4.2
		c0.7-4.9-2.1-11.9-6.8-17.3c-1.9-2.3-2.8-5.6-1.9-7.7c0.7-2.1,0.5-3-0.9-2.3c-2.8,1.6-7.7-7.7-6.1-11.7c1.4-3.7-5.6-6.8-16.1-7
		c-4.4,0-6.8-1.2-6.3-3c0.2-1.9-0.5-2.6-1.6-1.9c-1.2,0.7-5.1-1.6-8.9-5.6c-3.5-3.7-7.3-7-8.2-7c-4.4,0-20.3-13.3-20.6-17.1
		c0-8,6.3-19.2,15.7-27.6c5.1-4.7,10.1-9.8,11-11.2c1.2-1.9-37.2-2.6-146.9-2.6H1.8L2.3,53.8z"/>
	<path id="path12" fill="#CCCCCC" d="M579.2,480.9c0,1.9,0.9,3.5,2.3,3.5c1.4,0,2.3-1.6,2.3-3.5c0-1.9-0.9-3.5-2.3-3.5
		C580.2,477.3,579.2,479,579.2,480.9z"/>
	<path id="path14" fill="#CCCCCC" d="M547.6,533.2c-0.7,1.2-0.5,2.8,0.7,3.5c1.2,0.7,2.1-0.2,2.1-2.1
		C550.5,530.7,549.8,530.2,547.6,533.2z"/>
	<path id="path16" fill="#CCCCCC" d="M536.7,557.3c-4.9,5.8-5.1,8-1.9,10.1c1.4,0.7,2.3,0,2.3-1.9c0-1.9,1.6-4.7,3.5-6.3
		c3.7-3,4.7-7,1.9-7C541.3,552.2,538.8,554.5,536.7,557.3z"/>
	<path id="path18" fill="#CCCCCC" d="M523.1,589.8c0,2.3-1.2,4.4-2.6,4.4c-1.4,0-2.1,2.3-1.6,5.1c0.5,3,1.6,5.4,3,5.4
		c1.4,0,3.3-2.3,4.7-5.4c1.2-2.8,3-5.1,4-5.1c4,0,1.6-6.5-2.8-7.7C524.3,585.6,523.1,586.6,523.1,589.8z"/>
	<path id="path20" fill="#CCCCCC" d="M514,644.1c-1.6,2.1-2.3,5.8-1.4,8c1.4,4,1.6,4,3.7,0c1.4-2.3,2.1-5.8,1.6-8
		C517.2,640.6,517,640.6,514,644.1z"/>
</g>
<g id="blue">
	<path id="path10_1_" fill="#14ACF2" d="M41.8,315c-0.9-0.7-1.9,0.9-1.9,3.3c0,2.3,0.9,3.7,2.3,3c1.2-0.9,1.6,3,0.9,9.8
		c-0.9,6.8-0.5,9.8,0.7,8c1.4-2.3,2.1-0.9,2.1,4.2c0,4,0.9,8.2,2.3,8.9c1.2,0.7,2.3,2.6,2.3,3.7c0,1.4-1.4,1.6-2.8,0.7
		c-2.3-1.4-2.3-1.2-0.2,1.9c1.6,1.9,2.1,4.4,1.2,5.4c-0.9,1.2-0.2,1.2,1.6,0c2.6-1.4,3-0.7,2.1,3c-0.9,3.3-0.5,4.7,0.9,3.7
		c1.6-1.2,2.1,0.5,1.4,4.4c-0.7,3.7-0.2,5.6,1.2,4.7c1.4-0.9,1.9,0.9,1.2,4.9c-0.7,3.5-0.7,5.6,0,4.9c1.2-1.2,5.1,4.9,10.1,15.2
		c1.4,3.3,3.5,7.7,4.7,9.8c1.2,2.6,1.2,6.5-0.5,10.5c-2.1,5.6-1.6,7,3.5,11.2c3.3,2.8,6.1,5.8,6.1,7.3c0,1.4-4.4,6.3-10.1,11
		c-9.8,8.2-11,11.2-11,26c-0.2,3.7-2.3,10.5-4.9,14.7c-3.5,5.4-4.7,10.8-4,16.8c0.5,5.1-0.2,8.7-1.2,8c-1.2-0.7-0.9,0.9,0.5,3.3
		c1.4,2.6,1.9,5.4,1.2,6.1c-0.7,0.7,0,1.9,1.6,3c1.9,1.2,2.3,0.7,0.9-1.6c-1.4-2.6-1.2-2.8,1.2-0.5c1.9,1.6,3.3,6.5,3.3,11
		c0.2,4.4,1.2,7.5,2.3,6.5c1.2-0.7,1.4,1.2,0.7,4.4c-0.9,3-1.6,6.5-1.6,7.5c0,1.2-0.9,1.4-1.9,0.7c-0.9-0.5-2.1,1.2-2.1,4
		c-0.5,4.2,0,4.4,1.9,1.6c2.1-2.8,2.3-2.6,0.9,1.2c-3,9.6-5.4,25-4,29.7c0.9,3.7,0.5,4.4-2.1,2.8c-2.1-1.2-1.9,0,0.9,3.7
		c7.3,10.3,18.9,38.8,22,53.8c3,15.7,3,15.7,38.8,17.5c18.2,0.9,36.3,2.1,40.2,2.3c4,0.2,19.6,1.4,35.1,2.1
		c15.4,0.9,31.8,2.1,36.3,2.6c4.4,0.5,20.8,1.6,36.3,2.3c15.4,0.7,40.7,2.3,56.1,3.5c24.3,1.9,62.9,4.2,93.5,5.8
		c6.3,0.2,9.1,1.4,8.7,3.5c-0.5,1.6,0.5,6.1,2.1,9.8c2.1,5.1,2.1,7.3-0.5,10.5c-2.3,2.6-2.3,3.3-0.2,2.1c1.6-0.9,2.8-0.5,2.8,1.6
		s2.8,3.3,8.2,3.3c6.8,0,8.2-0.9,8.4-4.9c0-2.8,0.9-10.3,1.9-17.1c1.2-7.7,0.9-11.7-0.5-10.8c-1.4,0.9-1.9-0.7-1.2-3.5
		c0.9-2.8,0.5-4.7-0.7-3.7c-1.2,0.7-2.1-0.9-2.1-3.7c0-3.3,0.9-4.4,3-3.3c1.9,1.4,1.9,0.7-0.2-2.1c-5.1-6.3-0.7-15,7.3-13.6
		c0.9,0,1.6-1.4,1.6-3.3c0-2.1,2.3-3.5,6.1-3.5c3.3,0,5.4,0.9,4.7,1.9c-0.5,0.9,1.2,2.1,4,2.1c2.8,0.2,5.4,1.6,5.8,3
		c0.5,1.2,1.9,1.6,3,0.9c1.4-0.7,3.5-0.2,5.1,0.9c4.9,4,25.7,7.5,29,4.7c1.6-1.4,2.3-3.5,1.4-4.7c-2.8-4.9-2.3-18.7,0.9-22
		c3-2.8,2.8-3.3-0.2-3.3c-5.4,0-4.7-3,2.1-9.4c4.4-4.2,5.1-6.1,3-7.5c-2.3-1.4-2.3-1.9,0-1.9c1.6,0,2.3-1.2,1.6-2.3
		c-4-6.5-3.3-18.2,1.6-28.5c5.1-10.5,13.6-18.5,10.3-9.6c-1.4,3.3-0.9,3.5,1.2,1.4c2.8-2.8,0.7-8.7-2.6-6.5
		c-1.2,0.7-1.6-3.3-1.2-8.7c0.5-5.6,2.1-10.3,3.5-10.8c1.9-0.7,1.9-1.9,0-4c-3-3.5,0.9-7,8-7c3,0,4.7-1.9,5.1-6.5
		c0.2-3.5-0.5-6.3-1.6-6.3c-1.4,0-1.6-1.2-0.7-2.6c0.9-1.9,2.1-1.6,3.5,0.5c1.2,1.9,2.1,2.1,2.1,0.9c0-1.4-1.2-3.7-2.6-5.1
		c-3.3-3.3,5.8-9.8,12.9-9.1c8.2,0.9,7.5-7.7-0.9-10.5c-8.2-3-10.8-8.7-5.8-13.6c2.6-2.6,3.5-2.8,3.5-0.7c0,1.6,0.9,2.6,2.1,1.9
		s4.9,0.2,8.7,2.1c7.3,3.7,13.1,1.9,7.3-2.3c-5.4-3.7-4.9-7.5,0.7-9.4c2.6-0.7,4.4-2.6,4-4c-0.9-5.4-7.5-11.2-12.6-11.2
		c-7.5,0-13.1-6.5-11.9-14.3c0.7-3.5,0.2-6.1-0.9-5.4c-0.9,0.7-1.9-1.4-1.9-4.7c0-3.3,1.2-6.5,2.3-7.3c1.4-0.9,0.5-3-2.1-5.4
		c-2.6-2.1-5.1-7-5.6-10.5c-0.9-8-11.9-20.1-20.8-23.2c-7.7-2.8-9.6-8.4-9.8-29c-0.2-9.8-1.2-14-2.8-13.3c-2.3,0.9-9.6-14.3-8.7-18
		c1.9-8.7,1.6-10.5-2.8-10.5c-2.6,0-4.4-1.4-4-3c0.2-1.9-0.5-2.6-1.6-1.6"/>
	<path id="path12_1_" fill="#14ACF2" d="M579.2,480.9c0,1.9,0.9,3.5,2.3,3.5c1.4,0,2.3-1.6,2.3-3.5c0-1.9-0.9-3.5-2.3-3.5
		C580.2,477.3,579.2,479,579.2,480.9z"/>
	<path id="path14_1_" fill="#14ACF2" d="M547.6,533.2c-0.7,1.2-0.5,2.8,0.7,3.5c1.2,0.7,2.1-0.2,2.1-2.1
		C550.5,530.7,549.8,530.2,547.6,533.2z"/>
	<path id="path16_1_" fill="#14ACF2" d="M536.7,557.3c-4.9,5.8-5.1,8-1.9,10.1c1.4,0.7,2.3,0,2.3-1.9c0-1.9,1.6-4.7,3.5-6.3
		c3.7-3,4.7-7,1.9-7C541.3,552.2,538.8,554.5,536.7,557.3z"/>
	<path id="path18_1_" fill="#14ACF2" d="M523.1,589.8c0,2.3-1.2,4.4-2.6,4.4c-1.4,0-2.1,2.3-1.6,5.1c0.5,3,1.6,5.4,3,5.4
		c1.4,0,3.3-2.3,4.7-5.4c1.2-2.8,3-5.1,4-5.1c4,0,1.6-6.5-2.8-7.7C524.3,585.6,523.1,586.6,523.1,589.8z"/>
	<path id="path20_1_" fill="#14ACF2" d="M514,644.1c-1.6,2.1-2.3,5.8-1.4,8c1.4,4,1.6,4,3.7,0c1.4-2.3,2.1-5.8,1.6-8
		C517.2,640.6,517,640.6,514,644.1z"/>
</g>
</svg>
