<?xml version="1.0" encoding="utf-8"?>
<!-- Generator: Adobe Illustrator 17.1.0, SVG Export Plug-In . SVG Version: 6.00 Build 0)  -->
<!DOCTYPE svg PUBLIC "-//W3C//DTD SVG 1.1//EN" "http://www.w3.org/Graphics/SVG/1.1/DTD/svg11.dtd">
<svg version="1.1"
	 id="svg6520" inkscape:output_extension="org.inkscape.output.svg.inkscape" sodipodi:docname="Florida_Republican_Presidential_Primary_Election_Results_by_County,_2012.svg" inkscape:version="0.48.2 r9819" sodipodi:version="0.32" xmlns:svg="http://www.w3.org/2000/svg" xmlns:sodipodi="http://sodipodi.sourceforge.net/DTD/sodipodi-0.dtd" xmlns:inkscape="http://www.inkscape.org/namespaces/inkscape" xmlns:cc="http://creativecommons.org/ns#" xmlns:dc="http://purl.org/dc/elements/1.1/" xmlns:rdf="http://www.w3.org/1999/02/22-rdf-syntax-ns#"
	 xmlns="http://www.w3.org/2000/svg" xmlns:xlink="http://www.w3.org/1999/xlink" x="0px" y="0px" viewBox="0 0 322.7 285.8"
	 enable-background="new 0 0 322.7 285.8" xml:space="preserve">
<defs  display="none">
	
	
		<inkscape:perspective  inkscape:persp3d-origin="372.04724 : 350.78739 : 1" sodipodi:type="inkscape:persp3d" inkscape:vp_x="0 : 526.18109 : 1" inkscape:vp_y="0 : 1000 : 0" inkscape:vp_z="744.09448 : 526.18109 : 1" id="perspective6528">
		</inkscape:perspective>
</defs>
<sodipodi:namedview  inkscape:cy="165.70624" showgrid="false" inkscape:pageopacity="0.0" inkscape:window-x="7" inkscape:window-maximized="0" inkscape:pageshadow="2" inkscape:window-y="24" inkscape:window-height="721" inkscape:current-layer="layer1" inkscape:window-width="1024" inkscape:document-units="px" objecttolerance="10" inkscape:zoom="2.0518795" inkscape:cx="154.00168" id="base" guidetolerance="10" bordercolor="#666666" pagecolor="#ffffff" borderopacity="1.0" gridtolerance="10000">
	</sodipodi:namedview>
<g id="layer1" transform="translate(-320.68149,-376.2632)" inkscape:label="Layer 1" inkscape:groupmode="layer">
	<path id="FL_Bay" inkscape:label="Bay, FL" fill="#C6C6C6" stroke="#FFFFFF" stroke-width="1.039" d="M414.5,404.9l0.7,15.9
		l0.7,12.1l-3.9-1.4l-0.8-0.4l-0.3-0.2l-1-0.8l-1.2-1.3l-8-5.3l-0.6-0.4l-0.4-0.3l-0.4-0.3l-0.6-0.4l-1.4-0.8l-0.6-0.3l-0.5-0.3
		l-0.6-0.3l-0.7-0.4l-0.6-0.3l-2.2-1l-0.1-5.3l1-1l4.1-1.5l11.5-0.5l2.3-0.1l-0.2-5.7l1.9-0.1L414.5,404.9"/>
	<path id="FL_Jackson" inkscape:label="Jackson, FL" fill="#C6C6C6" stroke="#FFFFFF" stroke-width="1.039" d="M409.6,386.3
		l18.1-1.2l5.9,12.3l-2.3,4.7l-6.2,0.3l-2.8,1.8l-2.9,0.3l-5,0.2l-1.9,0.1l-0.4-9.5l-2.8-1.8l-3.6,0.2l3.4-7.5L409.6,386.3"/>
	<path id="FL_Charlotte" inkscape:label="Charlotte, FL" fill="#C6C6C6" stroke="#FFFFFF" stroke-width="1.039" d="M553.2,548.8
		l19.3-1.9l1,11.4l-19.4,1.8l0.1-1.4l-0.3-2.4l-0.5-3.4l-0.1-0.5l-0.5-0.3l-1.2,0.1l-0.3,0.2l-1.9,1.5l-0.2,0.3l0.5,6.1l-0.1,0.2
		l-1.7,0.2l-0.4-0.4l-0.1,0l-0.3,0.4l-0.3,0.8l-0.5,0l-0.1-0.6l-0.2-0.6l-0.1-0.2l0,0l-4.7-6.4l4.7-0.4l-0.2-2.6l-0.1-1.2
		L553.2,548.8"/>
	<path id="FL_Lee" inkscape:label="Lee, FL" fill="#C6C6C6" stroke="#FFFFFF" stroke-width="1.039" d="M546.7,563.7l3.9,8.4l0.5,0.5
		l0.7,0.5l2.5,0.8l0.4-0.5l0.6-0.2l2,0.5l0,0.1l-1.8,1.3l-0.5,0.2l-0.3,0l-0.6-0.1l-1.2-0.4l-1.9-1.2l-0.2-0.2l-0.2-0.2l-0.3-0.6
		l-3.6-7.6L546.7,563.7 M554,560.1l19.4-1.8l1.2,11l0.4,3.9l-3.3,4.9l-6.3,0.7l-1.1-0.5l-1.1-2l-1.9-1.9l-4.1-3l-3.9-6.6L554,560.1"
		/>
	<path id="FL_Hendry" inkscape:label="Hendry, FL" fill="#C6C6C6" stroke="#FFFFFF" stroke-width="1.039" d="M573.5,558.3l15.5-1.5
		l8.9-0.9l1.5-8.4l3,26.9l0.4,3.2l-15.3,1.8l-0.8-7.3l-0.4-4.1l-11.5,1.3L573.5,558.3"/>
	<path id="FL_Collier" inkscape:label="Collier, FL" fill="#C6C6C6" stroke="#FFFFFF" stroke-width="1.039" d="M602.6,577.6l1.5,12
		l0.8,7.5l-18.6,2l-0.2-0.6l-0.2-0.2l-1.8-1.1l-1-0.5l-0.3-0.1l-3.8-1l-0.5,0l-4.6,0.6l-0.4,0.2l-0.3,0.4l-0.1,0.5L573,598l-0.2,0.5
		l-0.3,0l-0.2-0.2l-2.3-3.6l-3.1-6l-0.3-1.6l-0.2-1.1l-0.8-3.6l-0.7-2.4l-0.6-1.4l0-0.1l1.1,0.5l6.3-0.7l3.3-4.9l-0.4-3.9l11.5-1.3
		l0.4,4.1l0.8,7.3L602.6,577.6"/>
	
		<path id="FL_Monroe" sodipodi:nodetypes="ccccccccccccccccccccccccc" inkscape:label="Monroe, FL" fill="#C6C6C6" stroke="#FFFFFF" stroke-width="1.039" d="
		M604.9,597.1l1.9,18.9l1.4,7.3l0.4,0.6l0,0l-2.5,1.8l-3.2,1.1l-3.2,0.6l-0.6-0.3l-1.7-1.1l-0.3-0.3l-1.5-2.4l0-1l0.2-1.9l0.3-1.5
		l0.1-0.4l0.3-0.4l0.2-0.1l0.5,0.1l0.1-0.3l0-0.4l-2.5-4.5l-4.1-7.1l-4.3-6.7L604.9,597.1"/>
	<path id="FL_Miami-Dade" inkscape:label="Miami-Dade, FL" fill="#C6C6C6" stroke="#FFFFFF" stroke-width="1.039" d="M632,614.1
		l-0.9-0.2l0.5-2l1.8-4.9l0.3-0.5l0.2,0l0.2,1.5l-0.9,3.2L632,614.1 M604.1,589.6l3.8-0.4l3.9,0.5l9.5-1l5.7-0.9l1.2-0.5l1.3-0.2
		l1.5-0.2l2.9-0.4l0,0.1l0.3,2.4l0.3,3.2l0,1l0,2l-0.3,1l-0.2,0.4l-0.8,0.6l-0.3-0.4l-0.5-0.3l-0.5,0.1l-1.2,0.6l-0.4,0.4l-0.1,0.3
		l-2.5,8.3l-0.3,1.5l0.1,0.9l0.9,3.4l0.2,0.3l0.4,0l0.2,0.2l-0.1,0.5l-0.8,1.6l-1.8,2.4l-0.1,0.1l-1.1,1.1l-2.3,2.3l-5.2,2.3
		l-1.2,0.5l-1.5,0.3l-2.5,0.3l-4-0.1l0,0l-0.4-0.6l-1.4-7.3l-1.9-18.9L604.1,589.6"/>
	<path id="FL_Broward" inkscape:label="Broward, FL" fill="#C6C6C6" stroke="#FFFFFF" stroke-width="1.039" d="M602.2,574.4
		l22.9-2.5l1.9-0.2l6.9-0.2l0,15l-2.9,0.4l-1.5,0.2l-1.3,0.2l-1.2,0.5l-5.7,0.9l-9.5,1l-3.9-0.5l-3.8,0.4l-1.5-12L602.2,574.4"/>
	<path id="FL_Palm_Beach" inkscape:label="Palm Beach, FL" fill="#C6C6C6" stroke="#FFFFFF" stroke-width="1.039" d="M599.3,547.5
		l19.6-2l0.4,0l9.1-0.9l2.4-0.9l0.6,1.5l0.7,1.6l0.6,1.5l0.9,2.6l0.4,4.1l0.3,3.8l0.1,1.9l-0.1,10.1l-0.1,0.7l-6.9,0.2l-1.9,0.2
		l-22.9,2.5L599.3,547.5"/>
	<path id="FL_Sarasota" inkscape:label="Sarasota, FL" fill="#C6C6C6" stroke="#FFFFFF" stroke-width="1.039" d="M552.5,541.3
		l0.6,7.6l-7.7,0.7l0.1,1.2l0.2,2.6l-4.7,0.4l-6.3-10.8l-0.4-0.6l-0.5-0.8l-0.3-0.5l-1.6-2.2l-0.9-1.1l-2-2.2l15.2-1.2l0.6,7.7
		L552.5,541.3"/>
	<path id="FL_Desoto" inkscape:label="Desoto, FL" fill="#C6C6C6" stroke="#FFFFFF" stroke-width="1.039" d="M571.2,533.7l1.3,13.2
		l-19.3,1.9l-1.1-13.2l7.7-0.6l4.2-0.5L571.2,533.7"/>
	<path id="FL_Glades" inkscape:label="Glades, FL" fill="#C6C6C6" stroke="#FFFFFF" stroke-width="1.039" d="M595.9,536.9l3.4,10.6
		l-1.5,8.4l-8.9,0.9l-15.5,1.5l-1-11.4l11.5-1.1l-0.4-3.8l3.5-4.2L595.9,536.9"/>
	<path id="FL_Martin" inkscape:label="Martin, FL" fill="#C6C6C6" stroke="#FFFFFF" stroke-width="1.039" d="M624.6,531.6l6.1,12.1
		l-2.4,0.9l-9.1,0.9l-0.4,0l-19.6,2l7-11.5l10.2-1.1l5.1-0.6l-0.2-2.5L624.6,531.6"/>
	<path id="FL_St._Lucie" inkscape:label="St. Lucie, FL" fill="#C6C6C6" stroke="#FFFFFF" stroke-width="1.039" d="M604.6,520.9
		l13.9-1.5l6.1,12.2l-3.3,0.3l0.2,2.5l-5.1,0.6l-10.2,1.1L604.6,520.9"/>
	<path id="FL_Indian_River" inkscape:label="Indian River, FL" fill="#C6C6C6" stroke="#FFFFFF" stroke-width="1.039" d="
		M596.1,510.3l13.9-1.4l2-1.7l0.2-0.3l6.3,12.5l-13.9,1.5l-3.8,0.4l-0.4-3.6l-3.7,0.4L596.1,510.3"/>
	<path id="FL_Okeechobee" inkscape:label="Okeechobee, FL" fill="#C6C6C6" stroke="#FFFFFF" stroke-width="1.039" d="M586.3,519.1
		l10.4-1l3.7-0.4l0.4,3.6l3.8-0.4l1.7,15.2l-7,11.5l-3.4-10.6l-3.1-3.5l-3.7-3.2l-3.8-7.4L586.3,519.1"/>
	<path id="FL_Highlands" inkscape:label="Highlands, FL" fill="#C6C6C6" stroke="#FFFFFF" stroke-width="1.039" d="M570,520.5
		l16.3-1.4l-1,3.8l3.8,7.4l3.7,3.2l3.1,3.5l-8.8,0.9l-3.5,4.2l0.4,3.8l-11.5,1.1l-1.3-13.2L570,520.5"/>
	<path id="FL_Hardee" inkscape:label="Hardee, FL" fill="#C6C6C6" stroke="#FFFFFF" stroke-width="1.039" d="M550.9,522.3l19-1.8
		l1.3,13.2l-7.2,0.7l-4.2,0.5l-7.7,0.6L550.9,522.3"/>
	<path id="FL_Manatee" inkscape:label="Manatee, FL" fill="#C6C6C6" stroke="#FFFFFF" stroke-width="1.039" d="M531.5,524.1
		l19.4-1.8l1.1,13.3l0.5,5.6l-7.7,0.6l-0.6-7.7l-15.2,1.2l-2.1-2.2l-1.1-2.3l1-0.4l1.4-0.8l2.8-4l0.2-0.3L531.5,524.1"/>
	<path id="FL_Pinellas" inkscape:label="Pinellas, FL" fill="#C6C6C6" stroke="#FFFFFF" stroke-width="1.039" d="M525.8,501.6
		l0.9,8.9l-2.6,0.6l-0.1,0.1l-0.1,0.3l0.2,0.5l0.4,0.3l4.1,2l1.6-0.6l0.1,1.1l-0.6,1.8l-3.7,8.1l-1.8-2.8l-3.6-10.6l0-0.1l0.3-2.2
		l0.2-2L521,504l-0.3-0.7l-0.2-0.3l-0.6-0.8L525.8,501.6"/>
	<path id="FL_Hillsborough" inkscape:label="Hillsborough, FL" fill="#C6C6C6" stroke="#FFFFFF" stroke-width="1.039" d="
		M525.8,501.6l21-1.8l1.9-0.2l1.3,13.2l0.8,9.4l-19.4,1.8l4.2-5.6l0.1-0.2l1-2l0.3-1.1l-0.5-1.9l-0.5-0.8l-5.7-2.4l-1.4-0.1
		l-1.2,0.2l-1.1,0.2L525.8,501.6"/>
	<path id="FL_Hernando" inkscape:label="Hernando, FL" fill="#C6C6C6" stroke="#FFFFFF" stroke-width="1.039" d="M524.1,479l8.7-0.8
		l0.1,1.2l5.9-0.6l0,0.9l0.5,0.7l1.4,1.8l0.8,0.5l4.8,1.5l1.2,2.1L540,487l0.2,1.9l-14.9,1.3l-1.5,0.1L524.1,479"/>
	<path id="FL_Pasco" inkscape:label="Pasco, FL" fill="#C6C6C6" stroke="#FFFFFF" stroke-width="1.039" d="M547.6,486.4l0.6,7.2
		l-1.4,6.2l-21,1.8l-5.9,0.5l3.9-11.7l1.5-0.1l14.9-1.3L540,487L547.6,486.4"/>
	<path id="FL_Osceola" inkscape:label="Osceola, FL" fill="#C6C6C6" stroke="#FFFFFF" stroke-width="1.039" d="M563.4,490.6l30.5-3
		l0.5,4.4l0.7,7l-0.2,0l1.2,11.3l0.6,7.8l-10.4,1l-0.2-1.5l-0.2-1.1l-1.8-3.1l-1-1.7l-8.1-8.3l-2.6-2.3l-8.5-6.8L563.4,490.6"/>
	<path id="FL_Polk" inkscape:label="Polk, FL" fill="#C6C6C6" stroke="#FFFFFF" stroke-width="1.039" d="M563.4,490.6l0.4,3.8
		l8.5,6.8l2.6,2.3l8.1,8.3l1,1.7l1.8,3.1l0.2,1.1l0.2,1.5l-16.3,1.4l-19,1.8l-0.8-9.4l-1.3-13.2l-1.9,0.2l1.4-6.2l3.6-1.8
		L563.4,490.6"/>
	<path id="FL_Orange" inkscape:label="Orandge, FL" fill="#C6C6C6" stroke="#FFFFFF" stroke-width="1.039" d="M571,470.8l-1.4,3.5
		l0.1,1l1.9,1.9l3.7,1l12.9-1.4l5.9,11l-30.5,3l-1.8-18.7l0.4-0.3l0.4-0.1l0.5,0L571,470.8"/>
	<path id="FL_Seminole" inkscape:label="Seminole, FL" fill="#C6C6C6" stroke="#FFFFFF" stroke-width="1.039" d="M571,470.8l1.4-4.2
		l2,1.7l4.9,1.4l0.8,0.2l0.2,0l1.3-0.5l0.4-0.8l2.7,2.5l1.2,1.6l2.3,4l-12.9,1.4l-3.7-1l-1.9-1.9l-0.1-1L571,470.8"/>
	<path id="FL_Lake" inkscape:label="Lake FL" fill="#C6C6C6" stroke="#FFFFFF" stroke-width="1.039" d="M560.2,450.3l6.6,7.4
		l2.5,1.8l1.5,1l1.5,1.3l0.1,0.1l0.3,2.3l-0.3,2.4l-1.4,4.2l-8,0.8l-0.5,0l-0.4,0.1l-0.4,0.3l1.8,18.7l-11.6,1.2l-2.3-26.6l11.3-1.1
		l0.3-4.5L560.2,450.3"/>
	<path id="FL_Sumter" inkscape:label="Sumter, FL" fill="#C6C6C6" stroke="#FFFFFF" stroke-width="1.039" d="M535.9,466.4l13.7-1.2
		l2.3,26.6l-3.6,1.8l-0.6-7.2l-1.2-2.1l-4.8-1.5l-0.8-0.5l-1.4-1.8l-0.5-0.7l0-0.9l0.3-1.9l0.2-0.4l0.5-0.8l0.8-1l0.7-0.1l0.1-0.1
		l0.5-1.4l0-0.2l-4.6-4.6L535.9,466.4"/>
	<path id="FL_Citrus" inkscape:label="Citrus, FL" fill="#C6C6C6" stroke="#FFFFFF" stroke-width="1.039" d="M527.1,463.4l8.9,2.9
		l1.5,2l4.6,4.6l0,0.2l-0.5,1.4l-0.1,0.1l-0.7,0.1l-0.8,1l-0.5,0.8l-0.2,0.4l-0.3,1.9l-5.9,0.6l-0.1-1.2l-8.7,0.8l-0.3-6.5l-0.2-1.4
		l-0.2-0.5l-4.8-4.1l0.3-0.4l0.4-0.4l1-0.9l0.7-0.1l0.6,0l2.3,0.7l2.3-1.2L527.1,463.4L527.1,463.4"/>
	<path id="FL_Levy" inkscape:label="Levy, FL" fill="#C6C6C6" stroke="#FFFFFF" stroke-width="1.039" d="M520.5,441.3l9.8,2.7
		l1.1,11.7l-5.1,0.5l0.6,7.4l0,0.1l-0.7,0.5l-2.3,1.2l-2.3-0.7l-0.6,0l-0.7,0.1l-1,0.9l-0.4,0.4l-0.3,0.4l0.2-1.5l-0.3-1.2l-2.1-3.9
		l-0.9-0.4l-13.4-4.6l3.2-2.5l1.8-2.8l1-2.7l1.7-5.8L520.5,441.3"/>
	<path id="FL_Marion" inkscape:label="Marion, FL" fill="#C6C6C6" stroke="#FFFFFF" stroke-width="1.039" d="M530.3,443.9l6.8-0.6
		l0.6,0.8l-0.1,0.5l2.7,1.4l2.9-1l0.5-0.3l0-0.1l-0.1-1.3l1-1.1l0.8-0.4l2.6-0.9l6.1,0.7l0.9,2.5l1.7,2.4l1.6,1.9l1.7,1.9l1,9.3
		l-0.3,4.5l-11.3,1.1l-13.7,1.2l-8.9-2.9l-0.6-7.4l5.1-0.5L530.3,443.9"/>
	<path id="FL_Volusia" inkscape:label="Volusia, FL" fill="#C6C6C6" stroke="#FFFFFF" stroke-width="1.039" d="M558.5,448.4l9.1-4.1
		l0.6,1l0.6,4.9l3.2-0.4l0.2,0l6.8-0.8l-0.6-4.7l1.7-2.4l2.6,5l2.1,3.7l1.6,2.9l1,1.5l3,4.1l6.6,8.9l-9,1l0.9,7.6l-0.9,0.1l-2.3-4
		l-1.2-1.6l-2.7-2.5l-0.4,0.8l-1.3,0.5l-0.2,0l-0.8-0.2l-4.9-1.4l-2-1.7l0.3-2.4l-0.3-2.3l-0.1-0.1l-1.5-1.3l-1.5-1l-2.5-1.8
		l-6.6-7.4L558.5,448.4"/>
	<path id="FL_Brevard" inkscape:label="Brevard, FL" fill="#C6C6C6" stroke="#FFFFFF" stroke-width="1.039" d="M588,476.6l0.9-0.1
		l-0.9-7.6l9-1l6.5,7.8l0.1,0.1l0.3,0.3l0,0.1l2.5,5.2l0,0.4l-1.3,0.7l-0.4,0.5l-0.5,0.8l0,0.2l0,0l-0.2,0.6l-0.2,1.2l0,1.2l0.1,1.1
		l0.4,2.3l0.9,3.4l1.3,3.5l0.9,1.9l0.8,1.3l1,1.8l0.1,0.1l2.9,4.5l-0.2,0.3l-2,1.7l-13.9,1.4l-1.2-11.3l0.2,0l-0.7-7l-0.5-4.4
		L588,476.6"/>
	<path id="FL_Washington" inkscape:label="Washington, FL" fill="#C6C6C6" stroke="#FFFFFF" stroke-width="1.039" d="M396.9,399.8
		l0.4-2.9l0.3-1l2.6-0.1l0.7,0.6l0,1.3l4.4-0.1l0.6-3l0-0.4l-0.1-0.5l3.6-0.2l2.8,1.8l0.4,9.5l-1.9,0.1l0.2,5.7l-2.3,0.1l-11.5,0.5
		l-4.1,1.5l-1,1l1.5-2.5l1.7-6.3l-0.6-0.7l-0.1-1.3l1.9-2.9L396.9,399.8"/>
	<path id="FL_Holmes" inkscape:label="Holmes, FL" fill="#C6C6C6" stroke="#FFFFFF" stroke-width="1.039" d="M389.1,387.5l20.1-1.2
		l-3.4,7.5l0.1,0.5l0,0.4l-0.6,3l-4.4,0.1l0-1.3l-0.7-0.6l-2.6,0.1l-0.3,1l-0.4,2.9l-7.2,0.3L389.1,387.5"/>
	<path id="FL_Walton" inkscape:label="Walton, FL" fill="#C6C6C6" stroke="#FFFFFF" stroke-width="1.039" d="M383.4,387.8l5.7-0.2
		l0.5,12.6l7.2-0.3l-0.5,0.3l-1.9,2.9l0.1,1.3l0.6,0.7l-1.7,6.3l-1.5,2.5l0.1,5.3l-15.4-4.1l-0.9-26.9L383.4,387.8"/>
	<path id="FL_Okaloosa" inkscape:label="Okaloosa, FL" fill="#C6C6C6" stroke="#FFFFFF" stroke-width="1.039" d="M375.9,388.1
		l0.9,26.9l-15.2,0.3l-0.5-26.7l3.6-0.1L375.9,388.1"/>
	<path id="FL_Santa_Rosa" inkscape:label="Santa Rosa, FL" fill="#C6C6C6" stroke="#FFFFFF" stroke-width="1.039" d="M347,389.1
		l14.1-0.5l0.5,26.7l-4.5,0.9l-6.2,0.6l-2.7-1.8l-4.2-8.8l-1.7-4.7l-0.5-1.6l-0.1-0.7l-0.3-3.3l0.2-0.6l0.8-2.5l0.3-0.4l1.8-1.4
		L347,389.1"/>
	<path id="FL_Escambia" inkscape:label="Escambia, FL" fill="#C6C6C6" stroke="#FFFFFF" stroke-width="1.039" d="M330.7,389.7
		l16.3-0.6l-2.4,1.7l-1.8,1.4l-0.3,0.4l-0.8,2.5l-0.2,0.6l0.3,3.3l0.1,0.7l0.5,1.6l1.7,4.7l4.2,8.8l2.7,1.8l6.2-0.6l-8.8,2.2
		l-0.3,0.1l-0.2,0l-1.3,0.3l-0.9,0.1l-1.4,0.2l-5.9,1.1l-3.5,0.8l2.5-1l0.8-4.7l0.9-9.5l0-0.7l-0.1-0.5l-0.4-0.8l-1.6-1.1l-1.2-0.7
		l-0.6-0.1l-0.2-0.1l-1.1-0.9l-3.6-4.4l-0.4-0.9L330.7,389.7"/>
	<path id="FL_Calhoun" inkscape:label="Calhoun, FL" fill="#C6C6C6" stroke="#FFFFFF" stroke-width="1.039" d="M414.5,404.9l5-0.2
		l2.9-0.3l2.8-1.8l6.2-0.3l-2,4l-1.7,8l-2.1,6.2l-10.3,0.5L414.5,404.9"/>
	<path id="FL_Gulf" inkscape:label="Gulf, FL" fill="#C6C6C6" stroke="#FFFFFF" stroke-width="1.039" d="M415.2,420.8l10.3-0.5
		l4,9.8l0.1,6l-2.2,2.8l-0.6-0.1l-3.5,3.1l-0.4,0.7l-3.6,0.1l0.1-4.3l-0.1-0.5l-0.5-1l-2-2.9L416,433l-0.1-0.1L415.2,420.8"/>
	<path id="FL_Franklin" inkscape:label="Franklin, FL" fill="#C6C6C6" stroke="#FFFFFF" stroke-width="1.039" d="M447.6,427.2
		l7.8,1.7l0.2,0.8l0.1,0.4l0.1,0.3l0,0.1l-0.1,0.5l-0.2,0.6l-0.2,0.1l-1.1,0.2l-1.7-0.3l-0.4-0.1l-0.4-0.3l-0.3-0.6l-2.2,0.7
		l-0.9,0.4l-5.7,3.9l-2.6,1.9l-2.2,1.5l-2.1,1.2l-4.2,1.1l-1.7,0.3l-1.3-0.3l-1.1,0.1l-0.7,0.2l-3.6,1.1l0.4-0.7l3.5-3.1l0.6,0.1
		l2.2-2.8l-0.1-6l0.6-1.9L447.6,427.2"/>
	<path id="FL_Dixie" inkscape:label="Dixie, FL" fill="#C6C6C6" stroke="#FFFFFF" stroke-width="1.039" d="M509.6,430.8l0.2,10.2
		l-1.7,5.8l-1,2.7l-1.8,2.8l-3.2,2.5l-0.6-2.4l-1.2-2.1l-0.7-1.1l-0.9-0.5l-0.9-0.1l-1.7-0.9l-2.9-1.7l-0.8-0.5l-0.1-0.2l-0.9-6.2
		l3-7.1L509.6,430.8"/>
	<path id="FL_Gilchrist" inkscape:label="Gilchrist, FL" fill="#C6C6C6" stroke="#FFFFFF" stroke-width="1.039" d="M510.9,428
		l2.9-2.2l5.7,4l1,11.5l-10.8-0.3l-0.2-10.2L510.9,428"/>
	<path id="FL_Alachua" inkscape:label="Alachua, FL" fill="#C6C6C6" stroke="#FFFFFF" stroke-width="1.039" d="M524,424.5l4.2,0.4
		l1,1.5l0.4,0.2l4.7,1.1l2.1,0l0.4-0.2l0.2,0l1.7,0.3l0.5,0.2l3.2,3.3l0.4,0.9l-0.1,0.5l0.9,10.7l0.1,1.3l0,0.1l-0.5,0.3l-2.9,1
		l-2.7-1.4l0.1-0.5l-0.6-0.8l-6.8,0.6l-9.8-2.7l-1-11.5L524,424.5"/>
	<path id="FL_Putnam" inkscape:label="Putnam, FL" fill="#C6C6C6" stroke="#FFFFFF" stroke-width="1.039" d="M560.2,425.7l3.1,9.2
		l4.3,9.4l-9.1,4.1l-1.6-1.9l-1.7-2.4l-0.9-2.5l-6.1-0.7l-2.6,0.9l-0.8,0.4l-1,1.1l-0.9-10.7l0.2,0l0.9-0.4l3.5-2.2l0.2-0.8l0.3-0.3
		l3.6-2.3l0.6-0.1L560.2,425.7"/>
	<path id="FL_Flagler" inkscape:label="Flagler, FL" fill="#C6C6C6" stroke="#FFFFFF" stroke-width="1.039" d="M563.3,434.9
		l11.6-3.2l5.3,10.1l-1.7,2.4l0.6,4.7l-6.8,0.8l-0.2,0l-3.2,0.4l-0.6-4.9l-0.6-1L563.3,434.9"/>
	<path id="FL_St._Johns" inkscape:label="St. Johns, FL" fill="#C6C6C6" stroke="#FFFFFF" stroke-width="1.039" d="M555.3,413.8
		l2.1-0.7l0.9,0l2.5,0.9l4-0.4l-0.7-6.4l2.1-0.2l3.9,12l2.8,7.8l0.1,0.1l0.4,1l0.3,0.8l1.4,2.9l-11.6,3.2l-3.1-9.2L555.3,413.8"/>
	<path id="FL_Clay" inkscape:label="Clay, FL" fill="#C6C6C6" stroke="#FFFFFF" stroke-width="1.039" d="M555.3,413.8l4.9,11.9
		l-8.2,0.9l-0.6,0.1l-3.6,2.3l-0.3,0.3l-0.2,0.8l-3.5,2.2l-0.9,0.4l-1.7-18.4l-0.2-1.9l3.8-0.3l7.9-0.9l1.1-0.2l1.2-0.1L555.3,413.8
		"/>
	<path id="FL_Bradford" inkscape:label="Bradford, FL" fill="#C6C6C6" stroke="#FFFFFF" stroke-width="1.039" d="M537.8,414.5
		l3.5-0.3l1.7,18.4l-0.2,0l0.1-0.5l-0.4-0.9l-3.2-3.3l-0.5-0.2l-1.7-0.3l-0.2,0l-0.4,0.2l-2.1,0l-4.7-1.1l-0.4-0.2l-1-1.5l1.7-0.7
		l2.4-1.1l4.4-5.5l1.2-2.1l0.1-0.5L537.8,414.5"/>
	<path id="FL_Union" inkscape:label="Union, FL" fill="#C6C6C6" stroke="#FFFFFF" stroke-width="1.039" d="M537.8,414.5l0.2,0.6
		l-0.1,0.5l-1.2,2.1l-4.4,5.5l-2.4,1.1l-1.7,0.7l-4.2-0.4l2-8.7L537.8,414.5"/>
	<path id="FL_Suwannee" inkscape:label="Suwannee, FL" fill="#C6C6C6" stroke="#FFFFFF" stroke-width="1.039" d="M512.5,408.2
		l1.2,17.6l-2.9,2.2l-2.2-2.9l-1.4-1.5l-0.6-0.5l-3.7-2.7l-1.7-0.9l-1.9-0.3l-0.2,0.4l-0.6,0.3l-1.1-0.3l-0.5-0.4l-1.2-3.2l-0.4-2.8
		l0-0.2l0.2-0.1l2.4-5.6l0.4-1.3l0.1-0.2l1.2-0.8l1.4-0.4l3,0.2l1.9,0.5L512.5,408.2"/>
	<path id="FL_Lafayette" inkscape:label="Lafayette, FL" fill="#C6C6C6" stroke="#FFFFFF" stroke-width="1.039" d="M495.7,412.8
		l-0.2,0.1l0,0.2l0.4,2.8l1.2,3.2l0.5,0.4l1.1,0.3l0.6-0.3l0.2-0.4l1.9,0.3l1.7,0.9l3.7,2.7l0.6,0.5l1.4,1.5l2.2,2.9l-1.3,2.9
		l-15.1,1.3l-1.3,0.1l-0.9-3.2l-1.1-15.9L495.7,412.8"/>
	<path id="FL_Taylor" inkscape:label="Taylor, FL" fill="#C6C6C6" stroke="#FFFFFF" stroke-width="1.039" d="M491.2,413.2l1.1,15.9
		l0.9,3.2l1.3-0.1l-3,7.1l-1.3-0.4l-3.7-1.7l-0.4-0.4l-0.3-0.4l-1.2-1.9l0-0.2l-0.2-0.8l-0.4-0.7l-1.8-2.4l-1.7-1.3l-0.3-0.2l-4-2
		l-2.2-0.8l-3.4-1.8l-2.4-1.6l5.8-10l13.2-1l0.1,1.9L491.2,413.2"/>
	<path id="FL_Wakulla" inkscape:label="Wakulla, FL" fill="#C6C6C6" stroke="#FFFFFF" stroke-width="1.039" d="M440.4,415l17.5-1.3
		l0.3,1.2l6.2-0.4l0.5,7.8l-6.4,0.5l-3.6,1.5l-0.6,0.3l-0.2,1.5l0.3,1.6l0.1,0.1l0.8,1l-7.8-1.7l-2.4-1.6l-1.1-0.9l-1.5-2.2l-3-6
		l0.3-1L440.4,415"/>
	<path id="FL_Liberty" inkscape:label="Liberty, FL" fill="#C6C6C6" stroke="#FFFFFF" stroke-width="1.039" d="M442.7,411l-2.3,4
		l-0.5,0.5l-0.3,1l3,6l1.5,2.2l1.1,0.9l2.4,1.6l-17.5,0.9l-0.6,1.9l-4-9.8l2.1-6.2l1.7-8l2-4L442.7,411"/>
	<path id="FL_Gadsden" inkscape:label="Gadsden, FL" fill="#C6C6C6" stroke="#FFFFFF" stroke-width="1.039" d="M451.8,397.2l3.8,0
		l-1.8,4l-2,5l-0.2,0.4L451,407l-0.8,0.3l-5.1,2.2l-2.4,1.4l-11.3-8.8l2.3-4.7l0,0L451.8,397.2"/>
	<path id="FL_Leon" inkscape:label="Leon, FL" fill="#C6C6C6" stroke="#FFFFFF" stroke-width="1.039" d="M465.9,397l-0.8,6.6l-1,3.9
		l0.5,7l-6.2,0.4l-0.3-1.2l-17.5,1.3l2.3-4l2.4-1.4l5.1-2.2l0.8-0.3l0.6-0.5l0.2-0.4l2-5l1.8-4l7.4-0.1L465.9,397"/>
	<path id="FL_Jefferson" inkscape:label="Jefferson, FL" fill="#C6C6C6" stroke="#FFFFFF" stroke-width="1.039" d="M475.8,396.9l5,0
		l0.3,0.5l0.2,2.5l-1.1,1.4l-3.2,3l-2.5,6.2l-0.4,2.1l-5.8,10l-3.2-0.3l-1-14.8l1-3.9l0.8-6.6L475.8,396.9"/>
	<path id="FL_Madison" inkscape:label="Madison, FL" fill="#C6C6C6" stroke="#FFFFFF" stroke-width="1.039" d="M490.4,396.8l1.8,0
		l1.6,0.8l1.4,6l0.9,2.1l0.2,0.2l1.8,1.3l-2.4,5.6l-4.5,0.4l-3.9,0.3l-0.1-1.9l-13.2,1l0.4-2.1l2.5-6.2l3.2-3l1.1-1.4l-0.2-2.5
		l-0.3-0.5L490.4,396.8"/>
	<path id="FL_Hamilton" inkscape:label="Hamilton, FL" fill="#C6C6C6" stroke="#FFFFFF" stroke-width="1.039" d="M498.7,396.7
		l16.8-0.2l-0.9,1.6l-0.1,0.8l0.1,1.2l0.7,0.9l2,2.4l0.2,0.4l0.3,1.1l0,0.4l-1.2,2.6l-0.2,0.3l-2.1,0.9l-1.8-0.3l-0.1-0.5l-6.3-2.8
		l-1.9-0.5l-3-0.2l-1.4,0.4l-1.2,0.8l-0.1,0.2l-0.4,1.3l-1.8-1.3l-0.2-0.2l-0.9-2.1l-1.4-6l-1.6-0.8L498.7,396.7"/>
	<path id="FL_Columbia" inkscape:label="Columbia, FL" fill="#C6C6C6" stroke="#FFFFFF" stroke-width="1.039" d="M519.5,396.4
		l4.7-0.1l1.7,19.5l-2,8.7l-4.5,5.2l-5.7-4l-1.2-17.6l0.1,0.5l1.8,0.3l2.1-0.9l0.2-0.3l1.2-2.6l0-0.4l-0.3-1.1l-0.2-0.4l-2-2.4
		l-0.7-0.9l-0.1-1.2l0.1-0.8l0.9-1.6L519.5,396.4"/>
	<path id="FL_Baker" inkscape:label="Baker, FL" fill="#C6C6C6" stroke="#FFFFFF" stroke-width="1.039" d="M525.7,396.3l7.7,0
		l0.8,6.2l0.3,1l0.6,1l0.7,0.7l0.2,0.1l4.3-0.6l0.4,3.9l0.5,5.7l-3.5,0.3l-11.9,1.3l-1.7-19.5L525.7,396.3"/>
	<path id="FL_Duval" inkscape:label="Duval, FL" fill="#C6C6C6" stroke="#FFFFFF" stroke-width="1.039" d="M540.8,408.5l7.3-9
		l3.4-4.1l0.8-0.7l0.4-0.2l2.7-1l4.2,0.4l0.6,0.1l2.3,2.1l0.7,0.5l0.6,0.6l0.9,3.5l0.3,2.6l0.3,1.6l0.4,1.3l0.3,0.9l-2.1,0.2
		l0.7,6.4l-4,0.4l-2.5-0.9l-0.9,0l-2.1,0.7l-0.3-3l-1.2,0.1l-1.1,0.2l-7.9,0.9l-3.8,0.3L540.8,408.5"/>
	<path id="FL_Nassau" inkscape:label="Nassau, FL" fill="#C6C6C6" stroke="#FFFFFF" stroke-width="1.039" d="M561.7,387.4l0.9,8.7
		l-2.3-2.1l-0.6-0.1l-4.2-0.4l-2.7,1l-0.4,0.2l-0.8,0.7l-3.4,4.1l-7.3,9l-0.4-3.9l0.4-3l0.4-3l0.1-2.9l-0.4-1.4l-1.1-1.6l-0.5-0.9
		l-0.1-0.9l0.6-4.7l4.2-2.1l1.5,1.2l5.7,1.6l4.4,0.7l2.3,0l3.2-0.2L561.7,387.4"/>
	
		<path id="path6608" sodipodi:nodetypes="cccccccccccccccccccccccccccccccccccccccccccccccccccccccccccccccccccccccccc" inkscape:label="Monroe, FL" fill="#C6C6C6" d="
		M616.2,635.8l-0.5,0.9L614,638l-1.7,1.3l-2,0.6l-0.2,0l0,0l0,0l0.2-0.2l2-1.8l3.5-2.4L616.2,635.8 M632,614.1l-0.3,0.2l-0.6,1
		l-2.7,5.9l-0.1,0.3l0.2,0.6l-0.3,0.7l-0.6,1.1l-6.7,8.2l-0.2,0.2l-3.3,2.8l-0.1-0.1l0,0l0-0.2l1.4-1.8l0.9-0.7l1.9-2l1.3-1.4l2.3-3
		l0.4-0.6l2.5-4.6l3.1-6.7L632,614.1 M605.8,642.7l-1.8,1.5l-2.4,1.4l-1.2,0.3l-0.6-0.5l-0.1-0.1l-0.1-0.1l3.5-1.7l4.8-2.3l0,0
		l0.2,0.5l-0.2,0.2L605.8,642.7 M581.5,649l0.1-0.5l0.6-1.1l5.5-2.5l1.5,0.3l2.8,0.8l1,1.8l0,0.1l-0.2,0.1l-0.4,0.2l-0.7,0.4l-2.4,1
		l-15.4,4.7l-1,0.2l-0.1-0.1l-0.1-0.7l0.1-0.3l0.6-0.8l1.8-0.4l0.4,0l0.2,0.2l0.2,0.1l1.4-0.6l0.6-0.3l1.6-1.2L581.5,649"/>
</g>
</svg>
